<?xml version="1.0" encoding="UTF-8"?>
<!DOCTYPE svg PUBLIC "-//W3C//DTD SVG 1.1//EN" "http://www.w3.org/Graphics/SVG/1.1/DTD/svg11.dtd">
<svg xmlns="http://www.w3.org/2000/svg" xmlns:xlink="http://www.w3.org/1999/xlink" width="523px" height="465px" version="1.1" content="%3Cmxfile%20userAgent%3D%22Mozilla%2F5.0%20(Macintosh%3B%20Intel%20Mac%20OS%20X%2010_12_3)%20AppleWebKit%2F537.36%20(KHTML%2C%20like%20Gecko)%20Chrome%2F56.0.2924.87%20Safari%2F537.36%22%20version%3D%22%40DRAWIO-VERSION%40%22%20editor%3D%22www.draw.io%22%20type%3D%22github%22%3E%3Cdiagram%20name%3D%22Page-1%22%3E7Vxbb%2BI4GP01PO4qzg14HJh2djWdnapUmmcTO2CNiZFjhtJfv05i54KbNhRaEsktquLPjm%2Ff8cnnE5eRN988feNwu%2F7BEKYj10FPI%2B%2FryHXHri%2F%2FZoaDNkwKw4oTVJhAZViQZ6yMjrLuCMJpo6BgjAqybRojliQ4Eg0b5Jztm8ViRputbuEKG4ZFBKlp%2FUWQWBfWiRtW9n8wWa11yyCcFjlLGP1ecbZLVHsj14vznyJ7A3VdaqDpGiK2r5m8m5E354yJ4mrzNMc0m1o9bcV9ty25Zb85TkSXG7xpBNyxgyI%2FjJcxiv9SNfyBdKfmYr5LBdtgrjosDnqS0j3ZUJjI1CxmiVioHEemozWh6A4e2C7rRSrkrOjUbM04eZblIZVZQBpkNhcKA3KGZW2E0jmjjOfteNjJfht3LrIaVVscp%2FLeez1kUJruYCp0fxilcJuSZd7DrMgG8hVJZkzIsalCejy3zeaV%2F2StmVsx0qW15%2FKE4Ox3CZWsftMRemYxF%2FipZlKO%2BYblJAt%2BkEVU7lStGbWGQpXcV4AEoYLRugbGsSoH1RpYlRWXbT3INQOTlZyMsjGgEXk4Sr%2FVnF4TujlIBeYJFHiWTVdaR5%2B8qI2zMuWY7IhPtxWf%2FyIToWu4zS6lGwSBtBq2NxNsq3xHcaxhwtWwsuulhkbmTUjJKpHXRdlZ5kMi2eKLMueVNWCbsHxdpFsYkWR1VzThO5XpQTXlSxOT9cU0B9OaIISTHGwCCrgsV9SWkUTkUxzM5Ec6Yu78HYwCOcy5TIMqLT9ZcS7mLJG4hCQHIJaLYY%2BzBTFDnG0fJfxxOexTgF1f6r6J8lZCeRv2hyagTgVeHecNxJ0CL8%2BA1%2F33s2G1rLPMCyjphK4jKF0KSW%2BBJRtjK6W1rs5jZ5dPatWPxtOuAYKa173wk5zuG07%2FD27wx7CJY9nk9cfk%2BQQSuFckkMDAkqWPzq72W1zdb%2FoIDZf%2F5OiK8XI8iXAUDSxeLiy1apaTwA%2Bcy0TSfngU3PodYwzg%2BO8Jpr3j9noaTI9fRq6NpHsZSYedYd%2BHSHpiI%2BlzHoXjFmf3%2B1E4NZz%2B0btzG0%2BfGk%2BfTCNXjae1IlyD1O13YImks7unLe7uN5EAU4f%2BKsMgyyED5ZBxR%2FH6Y8BkisaWQLrrL23brZ4ziCnlGk7HaIV1BC4ngIjDA6ZQEJbcVDkznKAv2TtFWejm4Rlz9sh%2BwOSgd%2BJV3gYm6GfBCu98OZSyHY9wy4hU%2F4Ve2K%2BEjdnAXl2W9XXovLjxVUaeT8gf3OjmK7vh%2BwyJtZ2w09wJe1OnWUUxYnWXW3tReVSRf1SRe1xRMS1GRZfYJgNTIF6syXaDVVNXEXni2B2%2ByIPCZRiElxF5QBg2oQa6bn%2FBRUQeD%2FRT5AGmJK3Ra4WeXgo9oE0H76fSA0wB3Eo9pwRYQYu7ex5gfbJ6bHdpJ785PZlHriv1mJKxlXpOIpJhisbAVI1vCaaSRpzzvW%2Bp5EpUclXFxzVVY8sj3Z09TM04MBUfzSPne9%2FyyJV4pDyCcZ3jXKb0Y4mks7fLFTkwIjEVE00kniWSwRKJ90597jKYMkUSSyTdiWQQEkmIQx9Oo2mIkBuCOHrhMPBjNnpLIUOlkOATdVYDTZZBujNI61IcFoGYEmtGIHY3M1wGmXRUWD33A%2BBkCqyWQTozyIeLq5dwuamEmQfpDJ8P6xiMmrlXj8GAvp2DOT6%2BUvLAqedgvOP%2F09bfPHD2ORiZrL53oChefbeDd%2FM%2F%3C%2Fdiagram%3E%3C%2Fmxfile%3E" resource="https://test.draw.io/?dev=1&amp;lang=de#Halderg%2Fsandbox%2Fmaster%2Fimages%2Fschema.svg" style="background-color: rgb(255, 255, 255);"><defs><clipPath id="mx-clip-41-32-114-24-0"><rect x="41" y="32" width="114" height="24"/></clipPath><clipPath id="mx-clip-5-32-26-24-0"><rect x="5" y="32" width="26" height="24"/></clipPath><clipPath id="mx-clip-41-58-114-24-0"><rect x="41" y="58" width="114" height="24"/></clipPath><clipPath id="mx-clip-403-110-114-24-0"><rect x="403" y="110" width="114" height="24"/></clipPath><clipPath id="mx-clip-367-110-26-24-0"><rect x="367" y="110" width="26" height="24"/></clipPath><clipPath id="mx-clip-403-136-114-24-0"><rect x="403" y="136" width="114" height="24"/></clipPath><clipPath id="mx-clip-367-136-26-24-0"><rect x="367" y="136" width="26" height="24"/></clipPath><clipPath id="mx-clip-403-162-114-24-0"><rect x="403" y="162" width="114" height="24"/></clipPath><clipPath id="mx-clip-109-280-114-24-0"><rect x="109" y="280" width="114" height="24"/></clipPath><clipPath id="mx-clip-73-280-26-24-0"><rect x="73" y="280" width="26" height="24"/></clipPath><clipPath id="mx-clip-109-306-114-24-0"><rect x="109" y="306" width="114" height="24"/></clipPath><clipPath id="mx-clip-73-306-26-24-0"><rect x="73" y="306" width="26" height="24"/></clipPath><clipPath id="mx-clip-109-332-114-24-0"><rect x="109" y="332" width="114" height="24"/></clipPath><clipPath id="mx-clip-109-358-114-24-0"><rect x="109" y="358" width="114" height="24"/></clipPath><clipPath id="mx-clip-109-384-114-24-0"><rect x="109" y="384" width="114" height="24"/></clipPath><clipPath id="mx-clip-109-410-114-24-0"><rect x="109" y="410" width="114" height="24"/></clipPath><clipPath id="mx-clip-109-436-114-30-0"><rect x="109" y="436" width="114" height="30"/></clipPath></defs><g transform="translate(0.5,0.5)"><rect x="0" y="0" width="160" height="78" fill="#ffffff" stroke="#000000" pointer-events="none"/><path d="M 0 26 L 0 0 L 160 0 L 160 26 Z" fill="#e0e0e0" stroke="#000000" stroke-miterlimit="10" pointer-events="none"/><g fill="#000000" font-family="Helvetica" text-anchor="middle" font-size="12px"><text x="79.5" y="17.5">Customer</text></g><path d="M 160 52 L 0 52" fill="none" stroke="#000000" stroke-miterlimit="10" pointer-events="none"/><g fill="#000000" font-family="Helvetica" text-decoration="underline" clip-path="url(#mx-clip-41-32-114-24-0)" font-size="12px"><text x="42.5" y="44.5">CustomerId</text></g><path d="M 36 26 L 36 52" fill="none" stroke="#000000" stroke-miterlimit="10" pointer-events="none"/><g fill="#000000" font-family="Helvetica" clip-path="url(#mx-clip-5-32-26-24-0)" font-size="12px"><text x="6.5" y="44.5">PK</text></g><g fill="#000000" font-family="Helvetica" clip-path="url(#mx-clip-41-58-114-24-0)" font-size="12px"><text x="42.5" y="70.5">Name</text></g><path d="M 36 52 L 36 78" fill="none" stroke="#000000" stroke-miterlimit="10" pointer-events="none"/><rect x="362" y="78" width="160" height="104" fill="#ffffff" stroke="#b85450" pointer-events="none"/><path d="M 362 104 L 362 78 L 522 78 L 522 104 Z" fill="#f8cecc" stroke="#b85450" stroke-miterlimit="10" pointer-events="none"/><g fill="#000000" font-family="Helvetica" text-anchor="middle" font-size="12px"><text x="441.5" y="95.5">Order</text></g><path d="M 522 130 L 362 130" fill="none" stroke="#000000" stroke-miterlimit="10" pointer-events="none"/><g fill="#000000" font-family="Helvetica" text-decoration="underline" clip-path="url(#mx-clip-403-110-114-24-0)" font-size="12px"><text x="404.5" y="122.5">OrderId</text></g><path d="M 398 104 L 398 130" fill="none" stroke="#000000" stroke-miterlimit="10" pointer-events="none"/><g fill="#000000" font-family="Helvetica" clip-path="url(#mx-clip-367-110-26-24-0)" font-size="12px"><text x="368.5" y="122.5">PK</text></g><g fill="#000000" font-family="Helvetica" clip-path="url(#mx-clip-403-136-114-24-0)" font-size="12px"><text x="404.5" y="148.5">CustomerId</text></g><path d="M 398 130 L 398 156" fill="none" stroke="#000000" stroke-miterlimit="10" pointer-events="none"/><g fill="#000000" font-family="Helvetica" clip-path="url(#mx-clip-367-136-26-24-0)" font-size="12px"><text x="368.5" y="148.5">FK1</text></g><g fill="#000000" font-family="Helvetica" clip-path="url(#mx-clip-403-162-114-24-0)" font-size="12px"><text x="404.5" y="174.5">Date</text></g><path d="M 398 156 L 398 182" fill="none" stroke="#000000" stroke-miterlimit="10" pointer-events="none"/><path d="M 160 39 L 180 39 Q 190 39 198.76 43.81 L 323.24 112.19 Q 332 117 342 117 L 362 117" fill="none" stroke="#000000" stroke-miterlimit="10" pointer-events="none"/><path d="M 164 35 L 164 43 M 168 35 L 168 43" fill="none" stroke="#000000" stroke-miterlimit="10" pointer-events="none"/><ellipse cx="350" cy="117" rx="3" ry="3" fill="#ffffff" stroke="#000000" pointer-events="none"/><path d="M 362 113 L 354 117 L 362 121" fill="none" stroke="#000000" stroke-miterlimit="10" pointer-events="none"/><rect x="68" y="248" width="160" height="214" fill="#ffffff" stroke="#d6b656" pointer-events="none"/><path d="M 68 274 L 68 248 L 228 248 L 228 274 Z" fill="#fff2cc" stroke="#d6b656" stroke-miterlimit="10" pointer-events="none"/><g fill="#000000" font-family="Helvetica" text-anchor="middle" font-size="12px"><text x="147.5" y="265.5">Shipment</text></g><path d="M 228 300 L 68 300" fill="none" stroke="#000000" stroke-miterlimit="10" pointer-events="none"/><g fill="#000000" font-family="Helvetica" text-decoration="underline" clip-path="url(#mx-clip-109-280-114-24-0)" font-size="12px"><text x="110.5" y="292.5">ShipmentId</text></g><path d="M 104 274 L 104 300" fill="none" stroke="#000000" stroke-miterlimit="10" pointer-events="none"/><g fill="#000000" font-family="Helvetica" clip-path="url(#mx-clip-73-280-26-24-0)" font-size="12px"><text x="74.5" y="292.5">PK</text></g><g fill="#000000" font-family="Helvetica" clip-path="url(#mx-clip-109-306-114-24-0)" font-size="12px"><text x="110.5" y="318.5">OrderId</text></g><path d="M 104 300 L 104 326" fill="none" stroke="#000000" stroke-miterlimit="10" pointer-events="none"/><g fill="#000000" font-family="Helvetica" clip-path="url(#mx-clip-73-306-26-24-0)" font-size="12px"><text x="74.5" y="318.5">FK1</text></g><g fill="#000000" font-family="Helvetica" clip-path="url(#mx-clip-109-332-114-24-0)" font-size="12px"><text x="110.5" y="344.5">Field 1</text></g><path d="M 104 326 L 104 352" fill="none" stroke="#000000" stroke-miterlimit="10" pointer-events="none"/><g fill="#000000" font-family="Helvetica" clip-path="url(#mx-clip-109-358-114-24-0)" font-size="12px"><text x="110.5" y="370.5">Field 2</text></g><path d="M 104 352 L 104 378" fill="none" stroke="#000000" stroke-miterlimit="10" pointer-events="none"/><g fill="#000000" font-family="Helvetica" clip-path="url(#mx-clip-109-384-114-24-0)" font-size="12px"><text x="110.5" y="396.5">Field 3</text></g><path d="M 104 378 L 104 404" fill="none" stroke="#000000" stroke-miterlimit="10" pointer-events="none"/><g fill="#000000" font-family="Helvetica" clip-path="url(#mx-clip-109-410-114-24-0)" font-size="12px"><text x="110.5" y="422.5">Test</text></g><path d="M 104 404 L 104 430" fill="none" stroke="#000000" stroke-miterlimit="10" pointer-events="none"/><g fill="#000000" font-family="Helvetica" clip-path="url(#mx-clip-109-436-114-30-0)" font-size="12px"><text x="110.5" y="448.5">Test2</text></g><path d="M 104 430 L 104 462" fill="none" stroke="#000000" stroke-miterlimit="10" pointer-events="none"/><path d="M 362 130 L 342 130 Q 332 130 328.25 139.27 L 261.75 303.73 Q 258 313 248 313 L 228 313" fill="none" stroke="#000000" stroke-miterlimit="10" pointer-events="none"/><path d="M 358 134 L 358 126 M 354 134 L 354 126" fill="none" stroke="#000000" stroke-miterlimit="10" pointer-events="none"/><ellipse cx="240" cy="313" rx="3" ry="3" fill="#ffffff" stroke="#000000" pointer-events="none"/><path d="M 228 317 L 236 313 L 228 309" fill="none" stroke="#000000" stroke-miterlimit="10" pointer-events="none"/></g></svg>