<?xml version="1.0" encoding="UTF-8"?>
<!DOCTYPE svg PUBLIC "-//W3C//DTD SVG 1.1//EN" "http://www.w3.org/Graphics/SVG/1.1/DTD/svg11.dtd">
<svg xmlns="http://www.w3.org/2000/svg" xmlns:xlink="http://www.w3.org/1999/xlink" width="523px" height="418px" version="1.1" content="%3Cmxfile%20userAgent%3D%22Mozilla%2F5.0%20(Macintosh%3B%20Intel%20Mac%20OS%20X%2010_12_3)%20AppleWebKit%2F537.36%20(KHTML%2C%20like%20Gecko)%20Chrome%2F55.0.2883.95%20Safari%2F537.36%22%20version%3D%22%40DRAWIO-VERSION%40%22%20editor%3D%22www.draw.io%22%20type%3D%22github%22%3E%3Cdiagram%20name%3D%22Page-1%22%3E7Vxdc9soFP01ftwdfVmOH2s36e403WbizPQZS1hmioUG4TrOr1%2BQQF9EjhQntjRDm8mICwLBPffockw8cZe7528UJNsfJIR44ljh88T9OnGcmePx38JwzA2%2Bd5MbIorC3GSXhhV6gdJoSesehTCtNWSEYIaSujEgcQwDVrMBSsmh3mxDcH3UBERQM6wCgHXrLxSybW69cfzS%2Fg9E0VaNbPvzvGYNgt8RJftYjjdx3E32L6%2FeAdWXnGi6BSE5VEzu7cRdUkJYfrV7XkIsllYtW37fXUtt8dwUxqzLDe48sJ2ZFQaev1lvws1fsoc%2FAO%2FlWiz3KSM7SOUDs6NapPSAdhjEvLTYkJitZI3Fy8EW4fAeHMlePEXK%2BKqo0mJLKHrh7QHmVTY38GrKJAb4CvPeEMZLggnNxnGhJf7X7lyJHuVYFKb83gc1Zbsw3YOUqechGIMkRevsCUWTHaARiheE8bnJRmo%2Bd%2FXhpf94r8KtMFStleeyAqPkdwEV0b%2FuCLWykDL4XDFJx3yDfJEZPfImsnYuY0bFkCweSkDavoTRtgLGmWwHZAxERcfFWI88ZkAc8cUoBrMVIo%2BN8lvDqZhQwwHMII0BgwuxXGkVffyiMs%2FSlGGyIz6dVnz%2BG%2BoI3YJEXHI3MARwOW13wUgifYfhRsGEymmJ67WChvAmwCiK%2BXXediF8iDhbfJHmrLMabGOSxUWagADF0X0%2BhGeVpkc5lMdNhPe3wRmYtigMYZyBjQEG1kVEJQTFLFvi6YL%2FcEcsrb%2Bnkymf5pKX7bLMf0RzypYk5rgEKAMg5MFwgCIgFiElyROHPyym3QfY1VD3dJS3EsrbsD%2FWAdUXeFWc1xDXB16uBq%2BH72fDal1lmVdQ0gldDSh9FJLeAouYYyultUZn09nFm1o%2BR%2B1tVwNBxeuufyGne5rT%2FwM7%2BDlsYhk2Of2aPJ9Aps4VCWSqYcnQR2dXey2uHjZ9%2BJrLf9LQ5MsXz5c9v5HCeh0zCdvy3pMyu83xBpoyz17Hp8mXB5kv%2B51hP4R8%2Bcbky%2Be88GYtzh72C2%2BuOf2z9%2BAma%2B6bNfemkatmzUr3rUDq7rttiKSzu%2Bct7h42kdi62vyVp0GGQ0bKIbOOEvXngEmXhg2BdFdZ2rZbA2cQXbDVnA7DCKoMnC8AYsdHiAFDJL4taxYwDr%2BITw55o9vHF0jJE%2FkB4qPab5d1OxCHP3NWeOeWNiV7GsCWGcnnZyqwT6SNYmInw7Iah9arG19ppNmC%2FIG1xzyxG34QSKzshK36TtidW%2FUu8hnLu5zKx5GNjrxGR06zo3xZtI4%2BYpts6zLwaouSHZRDGSnnclJOId0Ue1y345vFsd4Ebwcpx7WHKeXYurysMGrknEHKOXabpj1MPcfWxWwj6PRJo6Yt7h54GnVhjdjsxXp%2FCtqbR64r6OjCsBF0ehHJOKVhW9eG7xDEnEas871vqORKVHJVXcfRtWHDI92dPU5leKrrOopHzve%2B4ZEr8Uhx0OI6R7N0gccQSWdvFxE5MiLRFRNFJK4hktESiftOfe5jMKWLJIZIuhPJKCQSH%2FoemAdzPwwd394ErxzsfRKzNxQyVgqZXlBn1dBkGKQ7g7SG4rgIRJdYBYGY3cx4GeSmo8LqnviLzHfDSRdYDYN0ZpBPF1c%2FwuW6EqYfl9N8Pq7DLnLlTh52sYd22qV5SKXggb6nXdzm31yrbxE4%2B7QLL5bfIZA3L7%2Bnwb39Hw%3D%3D%3C%2Fdiagram%3E%3C%2Fmxfile%3E" resource="https://test.draw.io/?dev=1&amp;splash=0#Halderg%2Fsandbox%2Fmaster%2Fimages%252Fschema.svg" style="background-color: rgb(255, 255, 255);"><defs><clipPath id="mx-clip-41-32-114-24-0"><rect x="41" y="32" width="114" height="24"/></clipPath><clipPath id="mx-clip-5-32-26-24-0"><rect x="5" y="32" width="26" height="24"/></clipPath><clipPath id="mx-clip-41-58-114-24-0"><rect x="41" y="58" width="114" height="24"/></clipPath><clipPath id="mx-clip-403-110-114-24-0"><rect x="403" y="110" width="114" height="24"/></clipPath><clipPath id="mx-clip-367-110-26-24-0"><rect x="367" y="110" width="26" height="24"/></clipPath><clipPath id="mx-clip-403-136-114-24-0"><rect x="403" y="136" width="114" height="24"/></clipPath><clipPath id="mx-clip-367-136-26-24-0"><rect x="367" y="136" width="26" height="24"/></clipPath><clipPath id="mx-clip-403-162-114-24-0"><rect x="403" y="162" width="114" height="24"/></clipPath><clipPath id="mx-clip-89-227-114-24-0"><rect x="89" y="227" width="114" height="24"/></clipPath><clipPath id="mx-clip-53-227-26-24-0"><rect x="53" y="227" width="26" height="24"/></clipPath><clipPath id="mx-clip-89-253-114-24-0"><rect x="89" y="253" width="114" height="24"/></clipPath><clipPath id="mx-clip-53-253-26-24-0"><rect x="53" y="253" width="26" height="24"/></clipPath><clipPath id="mx-clip-89-279-114-24-0"><rect x="89" y="279" width="114" height="24"/></clipPath><clipPath id="mx-clip-89-305-114-24-0"><rect x="89" y="305" width="114" height="24"/></clipPath><clipPath id="mx-clip-89-331-114-24-0"><rect x="89" y="331" width="114" height="24"/></clipPath><clipPath id="mx-clip-89-357-114-24-0"><rect x="89" y="357" width="114" height="24"/></clipPath><clipPath id="mx-clip-89-383-114-36-0"><rect x="89" y="383" width="114" height="36"/></clipPath></defs><g transform="translate(0.5,0.5)"><rect x="0" y="0" width="160" height="78" fill="#ffffff" stroke="#000000" pointer-events="none"/><path d="M 0 26 L 0 0 L 160 0 L 160 26 Z" fill="#e0e0e0" stroke="#000000" stroke-miterlimit="10" pointer-events="none"/><g fill="#000000" font-family="Helvetica" text-anchor="middle" font-size="12px"><text x="79.5" y="17.5">Customer</text></g><path d="M 160 52 L 0 52" fill="none" stroke="#000000" stroke-miterlimit="10" pointer-events="none"/><g fill="#000000" font-family="Helvetica" text-decoration="underline" clip-path="url(#mx-clip-41-32-114-24-0)" font-size="12px"><text x="42.5" y="44.5">CustomerId</text></g><path d="M 36 26 L 36 52" fill="none" stroke="#000000" stroke-miterlimit="10" pointer-events="none"/><g fill="#000000" font-family="Helvetica" clip-path="url(#mx-clip-5-32-26-24-0)" font-size="12px"><text x="6.5" y="44.5">PK</text></g><g fill="#000000" font-family="Helvetica" clip-path="url(#mx-clip-41-58-114-24-0)" font-size="12px"><text x="42.5" y="70.5">Name</text></g><path d="M 36 52 L 36 78" fill="none" stroke="#000000" stroke-miterlimit="10" pointer-events="none"/><rect x="362" y="78" width="160" height="104" fill="#ffffff" stroke="#000000" pointer-events="none"/><path d="M 362 104 L 362 78 L 522 78 L 522 104 Z" fill="#e0e0e0" stroke="#000000" stroke-miterlimit="10" pointer-events="none"/><g fill="#000000" font-family="Helvetica" text-anchor="middle" font-size="12px"><text x="441.5" y="95.5">Order</text></g><path d="M 522 130 L 362 130" fill="none" stroke="#000000" stroke-miterlimit="10" pointer-events="none"/><g fill="#000000" font-family="Helvetica" text-decoration="underline" clip-path="url(#mx-clip-403-110-114-24-0)" font-size="12px"><text x="404.5" y="122.5">OrderId</text></g><path d="M 398 104 L 398 130" fill="none" stroke="#000000" stroke-miterlimit="10" pointer-events="none"/><g fill="#000000" font-family="Helvetica" clip-path="url(#mx-clip-367-110-26-24-0)" font-size="12px"><text x="368.5" y="122.5">PK</text></g><g fill="#000000" font-family="Helvetica" clip-path="url(#mx-clip-403-136-114-24-0)" font-size="12px"><text x="404.5" y="148.5">CustomerId</text></g><path d="M 398 130 L 398 156" fill="none" stroke="#000000" stroke-miterlimit="10" pointer-events="none"/><g fill="#000000" font-family="Helvetica" clip-path="url(#mx-clip-367-136-26-24-0)" font-size="12px"><text x="368.5" y="148.5">FK1</text></g><g fill="#000000" font-family="Helvetica" clip-path="url(#mx-clip-403-162-114-24-0)" font-size="12px"><text x="404.5" y="174.5">Date</text></g><path d="M 398 156 L 398 182" fill="none" stroke="#000000" stroke-miterlimit="10" pointer-events="none"/><path d="M 160 39 L 180 39 Q 190 39 198.76 43.81 L 323.24 112.19 Q 332 117 342 117 L 362 117" fill="none" stroke="#000000" stroke-miterlimit="10" pointer-events="none"/><path d="M 164 35 L 164 43 M 168 35 L 168 43" fill="none" stroke="#000000" stroke-miterlimit="10" pointer-events="none"/><ellipse cx="350" cy="117" rx="3" ry="3" fill="#ffffff" stroke="#000000" pointer-events="none"/><path d="M 362 113 L 354 117 L 362 121" fill="none" stroke="#000000" stroke-miterlimit="10" pointer-events="none"/><rect x="48" y="195" width="160" height="220" fill="#ffffff" stroke="#000000" pointer-events="none"/><path d="M 48 221 L 48 195 L 208 195 L 208 221 Z" fill="#e0e0e0" stroke="#000000" stroke-miterlimit="10" pointer-events="none"/><g fill="#000000" font-family="Helvetica" text-anchor="middle" font-size="12px"><text x="127.5" y="212.5">Shipment</text></g><path d="M 208 247 L 48 247" fill="none" stroke="#000000" stroke-miterlimit="10" pointer-events="none"/><g fill="#000000" font-family="Helvetica" text-decoration="underline" clip-path="url(#mx-clip-89-227-114-24-0)" font-size="12px"><text x="90.5" y="239.5">ShipmentId</text></g><path d="M 84 221 L 84 247" fill="none" stroke="#000000" stroke-miterlimit="10" pointer-events="none"/><g fill="#000000" font-family="Helvetica" clip-path="url(#mx-clip-53-227-26-24-0)" font-size="12px"><text x="54.5" y="239.5">PK</text></g><g fill="#000000" font-family="Helvetica" clip-path="url(#mx-clip-89-253-114-24-0)" font-size="12px"><text x="90.5" y="265.5">OrderId</text></g><path d="M 84 247 L 84 273" fill="none" stroke="#000000" stroke-miterlimit="10" pointer-events="none"/><g fill="#000000" font-family="Helvetica" clip-path="url(#mx-clip-53-253-26-24-0)" font-size="12px"><text x="54.5" y="265.5">FK1</text></g><g fill="#000000" font-family="Helvetica" clip-path="url(#mx-clip-89-279-114-24-0)" font-size="12px"><text x="90.5" y="291.5">Field 1</text></g><path d="M 84 273 L 84 299" fill="none" stroke="#000000" stroke-miterlimit="10" pointer-events="none"/><g fill="#000000" font-family="Helvetica" clip-path="url(#mx-clip-89-305-114-24-0)" font-size="12px"><text x="90.5" y="317.5">Field 2</text></g><path d="M 84 299 L 84 325" fill="none" stroke="#000000" stroke-miterlimit="10" pointer-events="none"/><g fill="#000000" font-family="Helvetica" clip-path="url(#mx-clip-89-331-114-24-0)" font-size="12px"><text x="90.5" y="343.5">Field 3</text></g><path d="M 84 325 L 84 351" fill="none" stroke="#000000" stroke-miterlimit="10" pointer-events="none"/><g fill="#000000" font-family="Helvetica" clip-path="url(#mx-clip-89-357-114-24-0)" font-size="12px"><text x="90.5" y="369.5">Test</text></g><path d="M 84 351 L 84 377" fill="none" stroke="#000000" stroke-miterlimit="10" pointer-events="none"/><g fill="#000000" font-family="Helvetica" clip-path="url(#mx-clip-89-383-114-36-0)" font-size="12px"><text x="90.5" y="395.5">Test2</text></g><path d="M 84 377 L 84 415" fill="none" stroke="#000000" stroke-miterlimit="10" pointer-events="none"/><path d="M 362 130 L 342 130 Q 332 130 326.14 138.1 L 243.86 251.9 Q 238 260 228 260 L 208 260" fill="none" stroke="#000000" stroke-miterlimit="10" pointer-events="none"/><path d="M 358 134 L 358 126 M 354 134 L 354 126" fill="none" stroke="#000000" stroke-miterlimit="10" pointer-events="none"/><ellipse cx="220" cy="260" rx="3" ry="3" fill="#ffffff" stroke="#000000" pointer-events="none"/><path d="M 208 264 L 216 260 L 208 256" fill="none" stroke="#000000" stroke-miterlimit="10" pointer-events="none"/></g></svg>