<?xml version="1.0" encoding="UTF-8"?>
<!DOCTYPE svg PUBLIC "-//W3C//DTD SVG 1.1//EN" "http://www.w3.org/Graphics/SVG/1.1/DTD/svg11.dtd">
<svg xmlns="http://www.w3.org/2000/svg" xmlns:xlink="http://www.w3.org/1999/xlink" width="523px" height="424px" version="1.1" content="%3Cmxfile%20userAgent%3D%22Mozilla%2F5.0%20(Macintosh%3B%20Intel%20Mac%20OS%20X%2010_12_3)%20AppleWebKit%2F537.36%20(KHTML%2C%20like%20Gecko)%20Chrome%2F55.0.2883.95%20Safari%2F537.36%22%20version%3D%22%40DRAWIO-VERSION%40%22%20editor%3D%22www.draw.io%22%20type%3D%22github%22%3E%3Cdiagram%20name%3D%22Page-1%22%3E7Vxbb6M4GP01edwVt5DmcZJpZ1fT2anaSvPsgEOscTAyzqTpr18bbG4uCTRtApLbqsKfjW%2Ff8eHzwcnEXW5fvlGQbH6QEOKJY4UvE%2FfrxHFmjsf%2FC8MhN%2FjeTW6IKApzk10antArlEZLWncohGmtICMEM5TUjQGJYxiwmg1QSvb1YmuC660mIIKa4SkAWLf%2BQiHb5NYbxy%2Ft%2F0AUbVTLtj%2FPc1Yg%2BB1RsotlexPHXWc%2FefYWqLrkQNMNCMm%2BYnJvJ%2B6SEsLyq%2B3LEmIxtWra8vvuWnKLflMYsy43uPPAdmZWGHj%2BerUO13%2FJGv4AvJNzsdyljGwhlR1mBzVJ6R5tMYh5arEmMXuSORZPBxuEw3twIDvRi5TxWVGpxYZQ9MrLA8yzbG7g2ZRJDPAZ5rUhjJcEE5q140JL%2FNbufBI1yrYoTPm9D2rIdmG6BylT%2FSEYgyRFq6yHosgW0AjFC8L42GQhNZ67evPSf7xW4VYYqtLKc1mCUfK7gIqoX3eEmllIGXypmKRjvkE%2ByYweeBGZO5drRq0hmdyXgLR9CaNNBYwzWQ7INRAVFRdtPfI1A%2BKIT0bRmK0QeWikTzWn1oRqDmAGaQwYXIjpSqvo4xeVcZamDJMd8em04vPfUEfoBiTikruBIYDLYbsLRhLpOwzXCiZUDktcrxQ0hDcBRlHMr%2FOyC%2BFDxNniizRnldVgG5NsXaQJCFAc3edNeFZpepRNedxEeH1rnIFpg8IQxhnYGGBgVayohKCYZVM8XfA%2F7oil9fd0MuXDXPK0Xab5nyhO2ZLEHJcAZQCEfDHsoVgQi5CS5JnDHxbD7gPs6lL3dJS3Espp2B%2FqgOoLvCrOa4jrAy9Xg9fD97NhtaqyzBso6YSuBpQ%2BCkmnwCLG2Epprauz6eziSS37UXva1UBQ8brrX8jpnub0%2F8AWfg6bWIZNjj8mzyeQqXNFAplqWDL00dnVXourh00fvubynzQ08fLF42XPb4SwXsdIwra894TMbrO9gYbMs7fxaeLlQcbLfmfYDyFevjHx8jkPvFmLs4f9wJtrTv%2FsPbiJmvtGzb1p5KpRs9J9K5C6%2B24bIuns7nmLu4dNJLauNn%2FlYZDhkJFyyKyjRP05YNKlYUMg3VWWtu3WwBlEF2w1p8MwgioC5xOA2OERYsAQiW%2FLnAWMwy%2FizSEvdPv4Cil5Jj9AfFD77TJvC%2BLwZ84K79zSpmRHA9gyItl%2Fphb2kbBRDOzosqyuQ%2BvNja800mxC%2FsBaN4%2Fshh8EEis7Yau%2BE3bnVr2KfMTyLqfyOrJRkdeoyGlWlE%2BLVtFHbJNtXQZ%2B2qBkC2VTRsq5nJRjO%2FV3n456v37yyeJYJ8HbQcpx7WFKObYuLyuMGjlnkHKO3aZpD1PPsXUx2wg6fcKoaYu7Bx5GXVgjNnux3m9Be%2FPIdQUdXRg2gk4vIhmnNGzr2vAdgpjTiHW%2B9w2VXIlKrqrrOLo2bHiku7PHqQxPdV1H8cj53jc8ciUeKQ5aXOdoli7wGCLp7O1iRY6MSHTFRBGJa4hktETivlOf%2BxhM6SKJIZLuRDIKicSHvgfmwdwPQ8e318EbB3ufxegNhYyVQqYX1Fk1NBkG6c4grUtxXASiS6yCQMxuZrwMctNRYXWPfCLz3XDSBVbDIJ0Z5NPF1Y9wua6E6cflNJ%2BP67CLnLmjh13soZ12aR5SKXig72kXt%2FmZa3XK4ezTLjxZfodAXrz8ngb39n8%3D%3C%2Fdiagram%3E%3C%2Fmxfile%3E" resource="https://test.draw.io/?dev=1&amp;splash=0#Halderg%2Fsandbox%2Fmaster%2Fimages%252Fschema.svg" style="background-color: rgb(255, 255, 255);"><defs><clipPath id="mx-clip-41-32-114-24-0"><rect x="41" y="32" width="114" height="24"/></clipPath><clipPath id="mx-clip-5-32-26-24-0"><rect x="5" y="32" width="26" height="24"/></clipPath><clipPath id="mx-clip-41-58-114-24-0"><rect x="41" y="58" width="114" height="24"/></clipPath><clipPath id="mx-clip-403-110-114-24-0"><rect x="403" y="110" width="114" height="24"/></clipPath><clipPath id="mx-clip-367-110-26-24-0"><rect x="367" y="110" width="26" height="24"/></clipPath><clipPath id="mx-clip-403-136-114-24-0"><rect x="403" y="136" width="114" height="24"/></clipPath><clipPath id="mx-clip-367-136-26-24-0"><rect x="367" y="136" width="26" height="24"/></clipPath><clipPath id="mx-clip-403-162-114-24-0"><rect x="403" y="162" width="114" height="24"/></clipPath><clipPath id="mx-clip-71-233-114-24-0"><rect x="71" y="233" width="114" height="24"/></clipPath><clipPath id="mx-clip-35-233-26-24-0"><rect x="35" y="233" width="26" height="24"/></clipPath><clipPath id="mx-clip-71-259-114-24-0"><rect x="71" y="259" width="114" height="24"/></clipPath><clipPath id="mx-clip-35-259-26-24-0"><rect x="35" y="259" width="26" height="24"/></clipPath><clipPath id="mx-clip-71-285-114-24-0"><rect x="71" y="285" width="114" height="24"/></clipPath><clipPath id="mx-clip-71-311-114-24-0"><rect x="71" y="311" width="114" height="24"/></clipPath><clipPath id="mx-clip-71-337-114-24-0"><rect x="71" y="337" width="114" height="24"/></clipPath><clipPath id="mx-clip-71-363-114-24-0"><rect x="71" y="363" width="114" height="24"/></clipPath><clipPath id="mx-clip-71-389-114-36-0"><rect x="71" y="389" width="114" height="36"/></clipPath></defs><g transform="translate(0.5,0.5)"><rect x="0" y="0" width="160" height="78" fill="#ffffff" stroke="#000000" pointer-events="none"/><path d="M 0 26 L 0 0 L 160 0 L 160 26 Z" fill="#e0e0e0" stroke="#000000" stroke-miterlimit="10" pointer-events="none"/><g fill="#000000" font-family="Helvetica" text-anchor="middle" font-size="12px"><text x="79.5" y="17.5">Customer</text></g><path d="M 160 52 L 0 52" fill="none" stroke="#000000" stroke-miterlimit="10" pointer-events="none"/><g fill="#000000" font-family="Helvetica" text-decoration="underline" clip-path="url(#mx-clip-41-32-114-24-0)" font-size="12px"><text x="42.5" y="44.5">CustomerId</text></g><path d="M 36 26 L 36 52" fill="none" stroke="#000000" stroke-miterlimit="10" pointer-events="none"/><g fill="#000000" font-family="Helvetica" clip-path="url(#mx-clip-5-32-26-24-0)" font-size="12px"><text x="6.5" y="44.5">PK</text></g><g fill="#000000" font-family="Helvetica" clip-path="url(#mx-clip-41-58-114-24-0)" font-size="12px"><text x="42.5" y="70.5">Name</text></g><path d="M 36 52 L 36 78" fill="none" stroke="#000000" stroke-miterlimit="10" pointer-events="none"/><rect x="362" y="78" width="160" height="104" fill="#ffffff" stroke="#000000" pointer-events="none"/><path d="M 362 104 L 362 78 L 522 78 L 522 104 Z" fill="#e0e0e0" stroke="#000000" stroke-miterlimit="10" pointer-events="none"/><g fill="#000000" font-family="Helvetica" text-anchor="middle" font-size="12px"><text x="441.5" y="95.5">Order</text></g><path d="M 522 130 L 362 130" fill="none" stroke="#000000" stroke-miterlimit="10" pointer-events="none"/><g fill="#000000" font-family="Helvetica" text-decoration="underline" clip-path="url(#mx-clip-403-110-114-24-0)" font-size="12px"><text x="404.5" y="122.5">OrderId</text></g><path d="M 398 104 L 398 130" fill="none" stroke="#000000" stroke-miterlimit="10" pointer-events="none"/><g fill="#000000" font-family="Helvetica" clip-path="url(#mx-clip-367-110-26-24-0)" font-size="12px"><text x="368.5" y="122.5">PK</text></g><g fill="#000000" font-family="Helvetica" clip-path="url(#mx-clip-403-136-114-24-0)" font-size="12px"><text x="404.5" y="148.5">CustomerId</text></g><path d="M 398 130 L 398 156" fill="none" stroke="#000000" stroke-miterlimit="10" pointer-events="none"/><g fill="#000000" font-family="Helvetica" clip-path="url(#mx-clip-367-136-26-24-0)" font-size="12px"><text x="368.5" y="148.5">FK1</text></g><g fill="#000000" font-family="Helvetica" clip-path="url(#mx-clip-403-162-114-24-0)" font-size="12px"><text x="404.5" y="174.5">Date</text></g><path d="M 398 156 L 398 182" fill="none" stroke="#000000" stroke-miterlimit="10" pointer-events="none"/><path d="M 160 39 L 180 39 Q 190 39 198.76 43.81 L 323.24 112.19 Q 332 117 342 117 L 362 117" fill="none" stroke="#000000" stroke-miterlimit="10" pointer-events="none"/><path d="M 164 35 L 164 43 M 168 35 L 168 43" fill="none" stroke="#000000" stroke-miterlimit="10" pointer-events="none"/><ellipse cx="350" cy="117" rx="3" ry="3" fill="#ffffff" stroke="#000000" pointer-events="none"/><path d="M 362 113 L 354 117 L 362 121" fill="none" stroke="#000000" stroke-miterlimit="10" pointer-events="none"/><rect x="30" y="201" width="160" height="220" fill="#ffffff" stroke="#000000" pointer-events="none"/><path d="M 30 227 L 30 201 L 190 201 L 190 227 Z" fill="#e0e0e0" stroke="#000000" stroke-miterlimit="10" pointer-events="none"/><g fill="#000000" font-family="Helvetica" text-anchor="middle" font-size="12px"><text x="109.5" y="218.5">Shipment</text></g><path d="M 190 253 L 30 253" fill="none" stroke="#000000" stroke-miterlimit="10" pointer-events="none"/><g fill="#000000" font-family="Helvetica" text-decoration="underline" clip-path="url(#mx-clip-71-233-114-24-0)" font-size="12px"><text x="72.5" y="245.5">ShipmentId</text></g><path d="M 66 227 L 66 253" fill="none" stroke="#000000" stroke-miterlimit="10" pointer-events="none"/><g fill="#000000" font-family="Helvetica" clip-path="url(#mx-clip-35-233-26-24-0)" font-size="12px"><text x="36.5" y="245.5">PK</text></g><g fill="#000000" font-family="Helvetica" clip-path="url(#mx-clip-71-259-114-24-0)" font-size="12px"><text x="72.5" y="271.5">OrderId</text></g><path d="M 66 253 L 66 279" fill="none" stroke="#000000" stroke-miterlimit="10" pointer-events="none"/><g fill="#000000" font-family="Helvetica" clip-path="url(#mx-clip-35-259-26-24-0)" font-size="12px"><text x="36.5" y="271.5">FK1</text></g><g fill="#000000" font-family="Helvetica" clip-path="url(#mx-clip-71-285-114-24-0)" font-size="12px"><text x="72.5" y="297.5">Field 1</text></g><path d="M 66 279 L 66 305" fill="none" stroke="#000000" stroke-miterlimit="10" pointer-events="none"/><g fill="#000000" font-family="Helvetica" clip-path="url(#mx-clip-71-311-114-24-0)" font-size="12px"><text x="72.5" y="323.5">Field 2</text></g><path d="M 66 305 L 66 331" fill="none" stroke="#000000" stroke-miterlimit="10" pointer-events="none"/><g fill="#000000" font-family="Helvetica" clip-path="url(#mx-clip-71-337-114-24-0)" font-size="12px"><text x="72.5" y="349.5">Field 3</text></g><path d="M 66 331 L 66 357" fill="none" stroke="#000000" stroke-miterlimit="10" pointer-events="none"/><g fill="#000000" font-family="Helvetica" clip-path="url(#mx-clip-71-363-114-24-0)" font-size="12px"><text x="72.5" y="375.5">Test</text></g><path d="M 66 357 L 66 383" fill="none" stroke="#000000" stroke-miterlimit="10" pointer-events="none"/><g fill="#000000" font-family="Helvetica" clip-path="url(#mx-clip-71-389-114-36-0)" font-size="12px"><text x="72.5" y="401.5">Test2</text></g><path d="M 66 383 L 66 421" fill="none" stroke="#000000" stroke-miterlimit="10" pointer-events="none"/><path d="M 362 130 L 342 130 Q 332 130 325.64 137.72 L 226.36 258.28 Q 220 266 210 266 L 190 266" fill="none" stroke="#000000" stroke-miterlimit="10" pointer-events="none"/><path d="M 358 134 L 358 126 M 354 134 L 354 126" fill="none" stroke="#000000" stroke-miterlimit="10" pointer-events="none"/><ellipse cx="202" cy="266" rx="3" ry="3" fill="#ffffff" stroke="#000000" pointer-events="none"/><path d="M 190 270 L 198 266 L 190 262" fill="none" stroke="#000000" stroke-miterlimit="10" pointer-events="none"/></g></svg>