<?xml version="1.0" encoding="UTF-8"?>
<!DOCTYPE svg PUBLIC "-//W3C//DTD SVG 1.1//EN" "http://www.w3.org/Graphics/SVG/1.1/DTD/svg11.dtd">
<svg xmlns="http://www.w3.org/2000/svg" xmlns:xlink="http://www.w3.org/1999/xlink" width="523px" height="415px" version="1.1" content="%3Cmxfile%20userAgent%3D%22Mozilla%2F5.0%20(Macintosh%3B%20Intel%20Mac%20OS%20X%2010_12_3)%20AppleWebKit%2F537.36%20(KHTML%2C%20like%20Gecko)%20Chrome%2F55.0.2883.95%20Safari%2F537.36%22%20version%3D%22%40DRAWIO-VERSION%40%22%20editor%3D%22www.draw.io%22%20type%3D%22github%22%3E%3Cdiagram%20name%3D%22Page-1%22%3E7Vxdb%2BI4FP01PO4qTkIojwPTzq6ms1OVSvNsEgPWmDhyzFD669dO7Hy5oaG0kEhuqyq%2Bdvx1j0%2BuTwwjb759%2FsZgsvlBI0RGrhM9j7yvI9eduL74Lw2H3BD4N7lhzXCUm0BpWOAXpIyOsu5whNJaQU4p4TipG0MaxyjkNRtkjO7rxVaU1FtN4BoZhkUIiWn9hSO%2Bya03blDa%2F0F4vdEtg2Ca5yxh%2BHvN6C5W7Y1cb5X95NlbqOtSA003MKL7ism7HXlzRinPr7bPc0Tk1Oppy%2B%2B7a8kt%2Bs1QzLvc4E1D4E6cKPSD1XIVrf5SNfyBZKfmYr5LOd0ipjrMD3qS0j3eEhiL1GxFY75QOY5IhxtMont4oDvZi5SLWdGp2YYy%2FCLKQyKygDCIbMYVBsQMi9owIXNKKMva8ZAjf2t3LmSNqi2GUnHvgx4yKEz3MOW6P5QQmKR4mfVQFtlCtsbxjHIxNlVIj%2Beu3rzyn6hVuhVFurT2XJbgjP4uoCLrNx2hZxYxjp4rJuWYb0hMMmcHUUTlTtWa0WtIJfclIEGgYLSpgHGiykG1BtZFxUVbj2LNwHgtJqNoDGhEHhrpt5rTa0I3BwlHLIYczeR0pVX0iYvKOEtThsmO%2BHRb8flvZCJ0AxN5KdzAMSTlsL0Zp4nyHUErDROmhiWvlxoa0puQ4HUsrvOyM%2BlDLNjiizJnldVgG9NsXaQJDHG8vs%2Bb8J3S9Kia8oWJivpWJAPTBkcRijOwccjhslhRCcUxz6Z4PBN%2FwhFz5%2B%2FxaCyGORdpUKbFnyzO%2BJzGApcQZwBEYjHskVwQs4jR5EnAHxXDPgXY1aXumyhvJZS3YX%2BoA%2BpU4FVxXkPcKfDyDHg9fD8bVssqy7yCkk7oakDpo5D0FljkGFsprXV1Np1dPKlVP2pPuxoIKl73ggs53Tec%2Fh%2Fcos9hE8eyyfHH5PkEMnavSCBjA0uWPjq72m9xdb%2FpIzBc%2FpNFNl6%2BeLzsB40Q1u8YSQDHf0%2FI7DXb62nIPHkdnzZe7mW8HHSGfR%2Fi5RsbL5%2FzwJu0OLvfD7yp4fTP3oPbqPnUqPlkGrlq1Kx13wqk7r4DSySd3T1tcXe%2FiQSYavNXEQZZDhkoh0w6StSfAyZTGrYE0l1ladtu9ZxBTMHWcDqK1khH4GICMD88IgI5pvFtmTNDcfRFvjkUhW4fXxCjT%2FQHjA96v13mbWEc%2FcxZ4Z1b2pTuWIhaRqT6z%2FXCPhI2yoEdXZbVdei8uvFVRpZNyB9U6%2BaR3fCDRGJlJ%2BzUd8Le1KlXkY9Y3eVWXkc2KvIbFbnNivJpMSr6iG0yMGXgxQYnW6SaslLO5aQc4NfffQpHdXyyAOdN8HaQcjzQTykHmPKyxqiVc3op54A2Tbufeg4wxWwr6JwSRo1b3N3zMOrCGrHdi538FvRkHrmuoGMKw1bQOYlIhikNA1MbvsOICBpxzve%2BpZIrUclVdR3X1IYtj3R39jCV4bGp62geOd%2F7lkeuxCPFQYvrHM0yBR5LJJ29XazIgRGJqZhoIvEskQyWSLx36nMfgylTJLFE0p1IBiGRBCjw4TScBlHkBmAVvnKw90mO3lLIUClkfEGd1UCTZZDuDNK6FIdFIKbEKgnE7maGyyA3XRXWI5%2FIfDecTIHVMkhnBvl8cfUDXG4qYeZxOcPnwzrsombu6GEX0LfTLs1DKgUPnHraxWt%2B5lp%2Fi8DZp11EsvwOgbx4%2BT0N3u3%2F%3C%2Fdiagram%3E%3C%2Fmxfile%3E" resource="https://test.draw.io/?dev=1&amp;splash=0#Halderg%2Fsandbox%2Fmaster%2Fimages%252Fschema.svg" style="background-color: rgb(255, 255, 255);"><defs><clipPath id="mx-clip-41-32-114-24-0"><rect x="41" y="32" width="114" height="24"/></clipPath><clipPath id="mx-clip-5-32-26-24-0"><rect x="5" y="32" width="26" height="24"/></clipPath><clipPath id="mx-clip-41-58-114-24-0"><rect x="41" y="58" width="114" height="24"/></clipPath><clipPath id="mx-clip-403-110-114-24-0"><rect x="403" y="110" width="114" height="24"/></clipPath><clipPath id="mx-clip-367-110-26-24-0"><rect x="367" y="110" width="26" height="24"/></clipPath><clipPath id="mx-clip-403-136-114-24-0"><rect x="403" y="136" width="114" height="24"/></clipPath><clipPath id="mx-clip-367-136-26-24-0"><rect x="367" y="136" width="26" height="24"/></clipPath><clipPath id="mx-clip-403-162-114-24-0"><rect x="403" y="162" width="114" height="24"/></clipPath><clipPath id="mx-clip-91-234-114-24-0"><rect x="91" y="234" width="114" height="24"/></clipPath><clipPath id="mx-clip-55-234-26-24-0"><rect x="55" y="234" width="26" height="24"/></clipPath><clipPath id="mx-clip-91-260-114-24-0"><rect x="91" y="260" width="114" height="24"/></clipPath><clipPath id="mx-clip-55-260-26-24-0"><rect x="55" y="260" width="26" height="24"/></clipPath><clipPath id="mx-clip-91-286-114-24-0"><rect x="91" y="286" width="114" height="24"/></clipPath><clipPath id="mx-clip-91-312-114-24-0"><rect x="91" y="312" width="114" height="24"/></clipPath><clipPath id="mx-clip-91-338-114-24-0"><rect x="91" y="338" width="114" height="24"/></clipPath><clipPath id="mx-clip-91-364-114-24-0"><rect x="91" y="364" width="114" height="24"/></clipPath><clipPath id="mx-clip-91-390-114-26-0"><rect x="91" y="390" width="114" height="26"/></clipPath></defs><g transform="translate(0.5,0.5)"><rect x="0" y="0" width="160" height="78" fill="#ffffff" stroke="#000000" pointer-events="none"/><path d="M 0 26 L 0 0 L 160 0 L 160 26 Z" fill="#e0e0e0" stroke="#000000" stroke-miterlimit="10" pointer-events="none"/><g fill="#000000" font-family="Helvetica" text-anchor="middle" font-size="12px"><text x="79.5" y="17.5">Customer</text></g><path d="M 160 52 L 0 52" fill="none" stroke="#000000" stroke-miterlimit="10" pointer-events="none"/><g fill="#000000" font-family="Helvetica" text-decoration="underline" clip-path="url(#mx-clip-41-32-114-24-0)" font-size="12px"><text x="42.5" y="44.5">CustomerId</text></g><path d="M 36 26 L 36 52" fill="none" stroke="#000000" stroke-miterlimit="10" pointer-events="none"/><g fill="#000000" font-family="Helvetica" clip-path="url(#mx-clip-5-32-26-24-0)" font-size="12px"><text x="6.5" y="44.5">PK</text></g><g fill="#000000" font-family="Helvetica" clip-path="url(#mx-clip-41-58-114-24-0)" font-size="12px"><text x="42.5" y="70.5">Name</text></g><path d="M 36 52 L 36 78" fill="none" stroke="#000000" stroke-miterlimit="10" pointer-events="none"/><rect x="362" y="78" width="160" height="104" fill="#ffffff" stroke="#000000" pointer-events="none"/><path d="M 362 104 L 362 78 L 522 78 L 522 104 Z" fill="#e0e0e0" stroke="#000000" stroke-miterlimit="10" pointer-events="none"/><g fill="#000000" font-family="Helvetica" text-anchor="middle" font-size="12px"><text x="441.5" y="95.5">Order</text></g><path d="M 522 130 L 362 130" fill="none" stroke="#000000" stroke-miterlimit="10" pointer-events="none"/><g fill="#000000" font-family="Helvetica" text-decoration="underline" clip-path="url(#mx-clip-403-110-114-24-0)" font-size="12px"><text x="404.5" y="122.5">OrderId</text></g><path d="M 398 104 L 398 130" fill="none" stroke="#000000" stroke-miterlimit="10" pointer-events="none"/><g fill="#000000" font-family="Helvetica" clip-path="url(#mx-clip-367-110-26-24-0)" font-size="12px"><text x="368.5" y="122.5">PK</text></g><g fill="#000000" font-family="Helvetica" clip-path="url(#mx-clip-403-136-114-24-0)" font-size="12px"><text x="404.5" y="148.5">CustomerId</text></g><path d="M 398 130 L 398 156" fill="none" stroke="#000000" stroke-miterlimit="10" pointer-events="none"/><g fill="#000000" font-family="Helvetica" clip-path="url(#mx-clip-367-136-26-24-0)" font-size="12px"><text x="368.5" y="148.5">FK1</text></g><g fill="#000000" font-family="Helvetica" clip-path="url(#mx-clip-403-162-114-24-0)" font-size="12px"><text x="404.5" y="174.5">Date</text></g><path d="M 398 156 L 398 182" fill="none" stroke="#000000" stroke-miterlimit="10" pointer-events="none"/><path d="M 160 39 L 180 39 Q 190 39 198.76 43.81 L 323.24 112.19 Q 332 117 342 117 L 362 117" fill="none" stroke="#000000" stroke-miterlimit="10" pointer-events="none"/><path d="M 164 35 L 164 43 M 168 35 L 168 43" fill="none" stroke="#000000" stroke-miterlimit="10" pointer-events="none"/><ellipse cx="350" cy="117" rx="3" ry="3" fill="#ffffff" stroke="#000000" pointer-events="none"/><path d="M 362 113 L 354 117 L 362 121" fill="none" stroke="#000000" stroke-miterlimit="10" pointer-events="none"/><rect x="50" y="202" width="160" height="210" fill="#ffffff" stroke="#000000" pointer-events="none"/><path d="M 50 228 L 50 202 L 210 202 L 210 228 Z" fill="#e0e0e0" stroke="#000000" stroke-miterlimit="10" pointer-events="none"/><g fill="#000000" font-family="Helvetica" text-anchor="middle" font-size="12px"><text x="129.5" y="219.5">Shipment</text></g><path d="M 210 254 L 50 254" fill="none" stroke="#000000" stroke-miterlimit="10" pointer-events="none"/><g fill="#000000" font-family="Helvetica" text-decoration="underline" clip-path="url(#mx-clip-91-234-114-24-0)" font-size="12px"><text x="92.5" y="246.5">ShipmentId</text></g><path d="M 86 228 L 86 254" fill="none" stroke="#000000" stroke-miterlimit="10" pointer-events="none"/><g fill="#000000" font-family="Helvetica" clip-path="url(#mx-clip-55-234-26-24-0)" font-size="12px"><text x="56.5" y="246.5">PK</text></g><g fill="#000000" font-family="Helvetica" clip-path="url(#mx-clip-91-260-114-24-0)" font-size="12px"><text x="92.5" y="272.5">OrderId</text></g><path d="M 86 254 L 86 280" fill="none" stroke="#000000" stroke-miterlimit="10" pointer-events="none"/><g fill="#000000" font-family="Helvetica" clip-path="url(#mx-clip-55-260-26-24-0)" font-size="12px"><text x="56.5" y="272.5">FK1</text></g><g fill="#000000" font-family="Helvetica" clip-path="url(#mx-clip-91-286-114-24-0)" font-size="12px"><text x="92.5" y="298.5">Field 1</text></g><path d="M 86 280 L 86 306" fill="none" stroke="#000000" stroke-miterlimit="10" pointer-events="none"/><g fill="#000000" font-family="Helvetica" clip-path="url(#mx-clip-91-312-114-24-0)" font-size="12px"><text x="92.5" y="324.5">Field 2</text></g><path d="M 86 306 L 86 332" fill="none" stroke="#000000" stroke-miterlimit="10" pointer-events="none"/><g fill="#000000" font-family="Helvetica" clip-path="url(#mx-clip-91-338-114-24-0)" font-size="12px"><text x="92.5" y="350.5">Field 3</text></g><path d="M 86 332 L 86 358" fill="none" stroke="#000000" stroke-miterlimit="10" pointer-events="none"/><g fill="#000000" font-family="Helvetica" clip-path="url(#mx-clip-91-364-114-24-0)" font-size="12px"><text x="92.5" y="376.5">Test</text></g><path d="M 86 358 L 86 384" fill="none" stroke="#000000" stroke-miterlimit="10" pointer-events="none"/><g fill="#000000" font-family="Helvetica" clip-path="url(#mx-clip-91-390-114-26-0)" font-size="12px"><text x="92.5" y="402.5">Test2</text></g><path d="M 86 384 L 86 412" fill="none" stroke="#000000" stroke-miterlimit="10" pointer-events="none"/><path d="M 362 130 L 342 130 Q 332 130 326.43 138.3 L 245.57 258.7 Q 240 267 230 267 L 210 267" fill="none" stroke="#000000" stroke-miterlimit="10" pointer-events="none"/><path d="M 358 134 L 358 126 M 354 134 L 354 126" fill="none" stroke="#000000" stroke-miterlimit="10" pointer-events="none"/><ellipse cx="222" cy="267" rx="3" ry="3" fill="#ffffff" stroke="#000000" pointer-events="none"/><path d="M 210 271 L 218 267 L 210 263" fill="none" stroke="#000000" stroke-miterlimit="10" pointer-events="none"/></g></svg>