<?xml version="1.0" encoding="UTF-8"?>
<!DOCTYPE svg PUBLIC "-//W3C//DTD SVG 1.1//EN" "http://www.w3.org/Graphics/SVG/1.1/DTD/svg11.dtd">
<svg xmlns="http://www.w3.org/2000/svg" xmlns:xlink="http://www.w3.org/1999/xlink" width="523px" height="465px" version="1.1" content="%3Cmxfile%20userAgent%3D%22Mozilla%2F5.0%20(Macintosh%3B%20Intel%20Mac%20OS%20X%2010_12_3)%20AppleWebKit%2F537.36%20(KHTML%2C%20like%20Gecko)%20Chrome%2F56.0.2924.87%20Safari%2F537.36%22%20version%3D%22%40DRAWIO-VERSION%40%22%20editor%3D%22www.draw.io%22%20type%3D%22github%22%3E%3Cdiagram%20name%3D%22Page-1%22%3E7Vxdc9soFP01ftwdIcly%2FFi7SXen6TYTZ6bPWMIyUyw8CNdxfv2CBPowkSPHX9IMaaYjLggE99yjyzHxwJuuXr8xuF7%2BoBEiA9eJXgfe14Hrjlxf%2FC8NO224yw0xw1FuAqVhht%2BQMjrKusERSmsNOaWE43XdGNIkQSGv2SBjdFtvtqCkPuoaxsgwzEJITOsvHPFlbr1zg9L%2BD8LxUo8MgnFeM4fh75jRTaLGG7jeIvvJq1dQ96Ummi5hRLcVk3c%2F8KaMUp5frV6niMil1cuW3%2FfQUFs8N0MJb3ODNw6BO3Ki0A8W80W0%2BEv18AeSjVqL6SbldIWYemC%2B04uUbvGKwESUJgua8JmqcUQ5XGISPcId3cinSLlYFV2aLCnDb6I9JKIKCIOoZlxhQKyw6A0TMqWEsmwcDznyX%2B3OmexRjcVQKu590lMGhekRplw%2FDyUErlM8z55QNllBFuNkQrmYm2qk5%2FNQH175T%2FQq3Yoi3Vp7LitwRn8XUJH9m47QK4sYR68Vk3LMNyQWmbOdaKJqxypmVAwFqrgtAQkCBaNlBYwj1Q6qGIiLjouxnkXMwCQWi1EMBjQid3vlj4bTMaGHg4QjlkCOJnK50ir6xEVlnqUpw2RLfLqN%2BPw3MhG6hGt5KdzAMSTltL0Jp2vlO4IWGiZMTUtezzU0pDchwXEirvO2E%2BlDLNjiizJnndVgm9AsLtI1DHESP%2BZD%2BE5pelZD%2BcJERX8LkoFpiaMIJRnYOORwXkTUmuKEZ0s8nIhf4Yip8%2FdwMBTTnIoyKMviVzZnfEoTgUuIMwAiEQxbJANiEjG6fhHwR8W0jwF2NdR9E%2BWNhPIx7Hd1QB0LvCrOa4g7Bl6eAa%2Bn7yfDal5lmXdQ0gpde1A6F5I%2BAoucYyOlNUbnvrOLN7V6jtrbrgaCite94EpO9w2n%2FwdX6DJs4lg2OfyaPJ1Ahu4NCWRoYMnSR2tX%2Bw2u7jZ9BIbLf7LI5stXz5f9YC%2BF9VtmEsDxP5Mye%2FvjdTRlHr2PT5svdzJfDlrDvgv58p3Nl0954Y0anN3tF97YcPql9%2BA2az42az6aRm6aNWvdtwKph%2B%2FAEklrd48b3N1tIgGm2vxVpEGWQ3rKIaOWEvVlwGRKw5ZA2qssTdutjjOIKdgaTkdRjHQGLhYA890zIpBjmtyXNROURF%2FkJ4ei0f3zG2L0hf6AyU7vt8u6FUyinzkrfHJLm9INC1HDjNTzcx3YB9JGObGDYVmNQ%2Bfdja8ysmxB%2FqDaYx7YDT9JJFZ2wk59J%2ByNnXoX%2BYzVXW7l48i9jvy9jtz9jvJlMTo6xzYZmDLwbInXK6SGslLO9aQcEAR1QIG2m1xwFinHA92UcoApL2uMWjmnk3IOaNK0u6nnAFPMtoLOMWnUsMHdHU%2BjrqwR273Y0Z%2BCHs0jtxV0TGHYCjpHEUk%2FpWFgasMPGBFBI87p3rdUciMquamu45rasOWR9s7upzI8NHUdzSOne9%2FyyI14pDhocZujWabAY4mktbeLiOwZkZiKiSYSzxJJb4nE%2B6Q%2Bdx5MmSKJJZL2RNILiSRAgQ%2FH4TiIIjcAi%2FCdg70vcvaWQvpKIcMr6qwGmiyDtGeQxlDsF4GYEqskELub6S%2BD3LVUWD33AnAyBVbLIK0Z5OLi6jlcbiph5nE5w%2Bf9OuyiVu7gYRfQtdMu%2B4dUCh449rSLt%2F831%2FpbBE4%2B7SKK5XcI5M3L72nw7v8H%3C%2Fdiagram%3E%3C%2Fmxfile%3E" resource="https://test.draw.io/?dev=1&amp;lang=de#Halderg%2Fsandbox%2Fmaster%2Fimages%2Fschema.svg" style="background-color: rgb(255, 255, 255);"><defs><clipPath id="mx-clip-41-32-114-24-0"><rect x="41" y="32" width="114" height="24"/></clipPath><clipPath id="mx-clip-5-32-26-24-0"><rect x="5" y="32" width="26" height="24"/></clipPath><clipPath id="mx-clip-41-58-114-24-0"><rect x="41" y="58" width="114" height="24"/></clipPath><clipPath id="mx-clip-403-110-114-24-0"><rect x="403" y="110" width="114" height="24"/></clipPath><clipPath id="mx-clip-367-110-26-24-0"><rect x="367" y="110" width="26" height="24"/></clipPath><clipPath id="mx-clip-403-136-114-24-0"><rect x="403" y="136" width="114" height="24"/></clipPath><clipPath id="mx-clip-367-136-26-24-0"><rect x="367" y="136" width="26" height="24"/></clipPath><clipPath id="mx-clip-403-162-114-24-0"><rect x="403" y="162" width="114" height="24"/></clipPath><clipPath id="mx-clip-109-280-114-24-0"><rect x="109" y="280" width="114" height="24"/></clipPath><clipPath id="mx-clip-73-280-26-24-0"><rect x="73" y="280" width="26" height="24"/></clipPath><clipPath id="mx-clip-109-306-114-24-0"><rect x="109" y="306" width="114" height="24"/></clipPath><clipPath id="mx-clip-73-306-26-24-0"><rect x="73" y="306" width="26" height="24"/></clipPath><clipPath id="mx-clip-109-332-114-24-0"><rect x="109" y="332" width="114" height="24"/></clipPath><clipPath id="mx-clip-109-358-114-24-0"><rect x="109" y="358" width="114" height="24"/></clipPath><clipPath id="mx-clip-109-384-114-24-0"><rect x="109" y="384" width="114" height="24"/></clipPath><clipPath id="mx-clip-109-410-114-24-0"><rect x="109" y="410" width="114" height="24"/></clipPath><clipPath id="mx-clip-109-436-114-30-0"><rect x="109" y="436" width="114" height="30"/></clipPath></defs><g transform="translate(0.5,0.5)"><rect x="0" y="0" width="160" height="78" fill="#ffffff" stroke="#000000" pointer-events="none"/><path d="M 0 26 L 0 0 L 160 0 L 160 26 Z" fill="#e0e0e0" stroke="#000000" stroke-miterlimit="10" pointer-events="none"/><g fill="#000000" font-family="Helvetica" text-anchor="middle" font-size="12px"><text x="79.5" y="17.5">Customer</text></g><path d="M 160 52 L 0 52" fill="none" stroke="#000000" stroke-miterlimit="10" pointer-events="none"/><g fill="#000000" font-family="Helvetica" text-decoration="underline" clip-path="url(#mx-clip-41-32-114-24-0)" font-size="12px"><text x="42.5" y="44.5">CustomerId</text></g><path d="M 36 26 L 36 52" fill="none" stroke="#000000" stroke-miterlimit="10" pointer-events="none"/><g fill="#000000" font-family="Helvetica" clip-path="url(#mx-clip-5-32-26-24-0)" font-size="12px"><text x="6.5" y="44.5">PK</text></g><g fill="#000000" font-family="Helvetica" clip-path="url(#mx-clip-41-58-114-24-0)" font-size="12px"><text x="42.5" y="70.5">Name</text></g><path d="M 36 52 L 36 78" fill="none" stroke="#000000" stroke-miterlimit="10" pointer-events="none"/><rect x="362" y="78" width="160" height="104" fill="#ffffff" stroke="#000000" pointer-events="none"/><path d="M 362 104 L 362 78 L 522 78 L 522 104 Z" fill="#e0e0e0" stroke="#000000" stroke-miterlimit="10" pointer-events="none"/><g fill="#000000" font-family="Helvetica" text-anchor="middle" font-size="12px"><text x="441.5" y="95.5">Order</text></g><path d="M 522 130 L 362 130" fill="none" stroke="#000000" stroke-miterlimit="10" pointer-events="none"/><g fill="#000000" font-family="Helvetica" text-decoration="underline" clip-path="url(#mx-clip-403-110-114-24-0)" font-size="12px"><text x="404.5" y="122.5">OrderId</text></g><path d="M 398 104 L 398 130" fill="none" stroke="#000000" stroke-miterlimit="10" pointer-events="none"/><g fill="#000000" font-family="Helvetica" clip-path="url(#mx-clip-367-110-26-24-0)" font-size="12px"><text x="368.5" y="122.5">PK</text></g><g fill="#000000" font-family="Helvetica" clip-path="url(#mx-clip-403-136-114-24-0)" font-size="12px"><text x="404.5" y="148.5">CustomerId</text></g><path d="M 398 130 L 398 156" fill="none" stroke="#000000" stroke-miterlimit="10" pointer-events="none"/><g fill="#000000" font-family="Helvetica" clip-path="url(#mx-clip-367-136-26-24-0)" font-size="12px"><text x="368.5" y="148.5">FK1</text></g><g fill="#000000" font-family="Helvetica" clip-path="url(#mx-clip-403-162-114-24-0)" font-size="12px"><text x="404.5" y="174.5">Date</text></g><path d="M 398 156 L 398 182" fill="none" stroke="#000000" stroke-miterlimit="10" pointer-events="none"/><path d="M 160 39 L 180 39 Q 190 39 198.76 43.81 L 323.24 112.19 Q 332 117 342 117 L 362 117" fill="none" stroke="#000000" stroke-miterlimit="10" pointer-events="none"/><path d="M 164 35 L 164 43 M 168 35 L 168 43" fill="none" stroke="#000000" stroke-miterlimit="10" pointer-events="none"/><ellipse cx="350" cy="117" rx="3" ry="3" fill="#ffffff" stroke="#000000" pointer-events="none"/><path d="M 362 113 L 354 117 L 362 121" fill="none" stroke="#000000" stroke-miterlimit="10" pointer-events="none"/><rect x="68" y="248" width="160" height="214" fill="#ffffff" stroke="#000000" pointer-events="none"/><path d="M 68 274 L 68 248 L 228 248 L 228 274 Z" fill="#e0e0e0" stroke="#000000" stroke-miterlimit="10" pointer-events="none"/><g fill="#000000" font-family="Helvetica" text-anchor="middle" font-size="12px"><text x="147.5" y="265.5">Shipment</text></g><path d="M 228 300 L 68 300" fill="none" stroke="#000000" stroke-miterlimit="10" pointer-events="none"/><g fill="#000000" font-family="Helvetica" text-decoration="underline" clip-path="url(#mx-clip-109-280-114-24-0)" font-size="12px"><text x="110.5" y="292.5">ShipmentId</text></g><path d="M 104 274 L 104 300" fill="none" stroke="#000000" stroke-miterlimit="10" pointer-events="none"/><g fill="#000000" font-family="Helvetica" clip-path="url(#mx-clip-73-280-26-24-0)" font-size="12px"><text x="74.5" y="292.5">PK</text></g><g fill="#000000" font-family="Helvetica" clip-path="url(#mx-clip-109-306-114-24-0)" font-size="12px"><text x="110.5" y="318.5">OrderId</text></g><path d="M 104 300 L 104 326" fill="none" stroke="#000000" stroke-miterlimit="10" pointer-events="none"/><g fill="#000000" font-family="Helvetica" clip-path="url(#mx-clip-73-306-26-24-0)" font-size="12px"><text x="74.5" y="318.5">FK1</text></g><g fill="#000000" font-family="Helvetica" clip-path="url(#mx-clip-109-332-114-24-0)" font-size="12px"><text x="110.5" y="344.5">Field 1</text></g><path d="M 104 326 L 104 352" fill="none" stroke="#000000" stroke-miterlimit="10" pointer-events="none"/><g fill="#000000" font-family="Helvetica" clip-path="url(#mx-clip-109-358-114-24-0)" font-size="12px"><text x="110.5" y="370.5">Field 2</text></g><path d="M 104 352 L 104 378" fill="none" stroke="#000000" stroke-miterlimit="10" pointer-events="none"/><g fill="#000000" font-family="Helvetica" clip-path="url(#mx-clip-109-384-114-24-0)" font-size="12px"><text x="110.5" y="396.5">Field 3</text></g><path d="M 104 378 L 104 404" fill="none" stroke="#000000" stroke-miterlimit="10" pointer-events="none"/><g fill="#000000" font-family="Helvetica" clip-path="url(#mx-clip-109-410-114-24-0)" font-size="12px"><text x="110.5" y="422.5">Test</text></g><path d="M 104 404 L 104 430" fill="none" stroke="#000000" stroke-miterlimit="10" pointer-events="none"/><g fill="#000000" font-family="Helvetica" clip-path="url(#mx-clip-109-436-114-30-0)" font-size="12px"><text x="110.5" y="448.5">Test2</text></g><path d="M 104 430 L 104 462" fill="none" stroke="#000000" stroke-miterlimit="10" pointer-events="none"/><path d="M 362 130 L 342 130 Q 332 130 328.25 139.27 L 261.75 303.73 Q 258 313 248 313 L 228 313" fill="none" stroke="#000000" stroke-miterlimit="10" pointer-events="none"/><path d="M 358 134 L 358 126 M 354 134 L 354 126" fill="none" stroke="#000000" stroke-miterlimit="10" pointer-events="none"/><ellipse cx="240" cy="313" rx="3" ry="3" fill="#ffffff" stroke="#000000" pointer-events="none"/><path d="M 228 317 L 236 313 L 228 309" fill="none" stroke="#000000" stroke-miterlimit="10" pointer-events="none"/></g></svg>