<?xml version="1.0" encoding="UTF-8"?>
<!DOCTYPE svg PUBLIC "-//W3C//DTD SVG 1.1//EN" "http://www.w3.org/Graphics/SVG/1.1/DTD/svg11.dtd">
<svg xmlns="http://www.w3.org/2000/svg" xmlns:xlink="http://www.w3.org/1999/xlink" width="523px" height="465px" version="1.1" content="%3Cmxfile%20userAgent%3D%22Mozilla%2F5.0%20(Macintosh%3B%20Intel%20Mac%20OS%20X%2010_12_3)%20AppleWebKit%2F537.36%20(KHTML%2C%20like%20Gecko)%20Chrome%2F56.0.2924.87%20Safari%2F537.36%22%20version%3D%22%40DRAWIO-VERSION%40%22%20editor%3D%22www.draw.io%22%20type%3D%22github%22%3E%3Cdiagram%20name%3D%22Page-1%22%3E7Vxtb9sqFP41%2BXivjO04yccla7dp3V3VVtpnYoiDRkxEyNL011%2BwwS%2Bhbu0laRyJqqrMAYPhPOfx4QnNIJitnr9wuF7%2BYAjTge%2Bh50HweeD7Iz%2BUf5Vhbwzj3JBwgnITKA2P5AVro6etW4LwptZQMEYFWdeNMUtTHIuaDXLOdvVmC0bro65hgi3DYwypbf1FkFjm1rEflfavmCRLMzKIJnnNHMa%2FE862qR5v4AeL7CevXkHTl57oZgkR21VMwc0gmHHGRH61ep5hqpbWLFt%2B321DbfHcHKeizQ3BJAb%2ByENxGC3mC7T4R%2FfwB9KtXovZdiPYCnP9wGJvFmmzIysKU1maLlgqHnWNJ8vxklB0B%2Fdsq55iI%2BSqmNJ0yTh5ke0hlVVAGmQ1FxoDcoVlb4TSGaOMZ%2BMEaIjHKKzd%2Bah61GNxvJH33pspg8J0BzfCPA%2BjFK43ZJ49oWqygjwh6ZQJOTfdyMzntj689p%2FsVbkVI9PaeC4rCM5%2BF1ABhaXSzdifB5Gane0is%2BaYC%2FxcMWmXfcFy%2BQXfyya6dqKjSUdXpIu7Eqog0gBbVmA60u2gjo6k6LgY60FGE0wTuUzFYMBgdX9Qfm84Ey1mOEgF5ikUeKoWclPFpbyozLM0ZWhtiVy%2FEbnfkI3dJVyrS%2BkGQSAtpx1MBVtrr1K8MADielrqem5Ao%2FwMKUlSeZ23nSofEskjn7Q566wG6JRlEbNZw5ikyV0%2BROiVpgc9lEI8k%2F0taAazJUEIpxkMBRRwXsTampFUZEs8nMpf6YiZ9%2B9wMJTTnMkyKMvyVzXnYsZSiU9IMgBiGSY7rEJlijhbP8nAwMW0u0C%2BSgKhjfJGqnkf9vs6oLoCr4rzGuK6wCuw4HX%2F%2FWhYzav88wpKWqHrAEqnQtJ7YFFz1J5v4Wy%2FwdnFO1w%2FR%2B09WANBxetB9EFODy2n%2FwdX%2BDxs4jk2qbLJOQhk6F%2BQQIYWlhx9tHZ12ODqftNHZLn8J0cuk%2B5RJh1GB8lt2DLHAF74N8l0cDheT5Pp0evIdZl0LzPpqDXs%2B5BJj10mfcyrcNTg7H6%2FCieW08%2B9O3f5dNd8ujONXDSfNlpxBVK334EjktbunjS4u99EAmyF%2BrNMgxyHXCmHjFqK1%2BcBky0aOwJpr780bbd6ziC2lGs5HaMEmwxcLgAR%2BwdMoSAsvSlrpjhFn9SnjbLRzcML5uyJ%2FYDp3uzEy7oVTNHPnBW6Rph5o7Etj3HDjPTzCxPYb6SNamJvhmU1Dr1XN77ayLMF%2BYNrj%2FnGbvheIbGyE%2FbqO%2BFg4tW7yGes7%2FIrH2EedBQedOQfdpQvi9XRKbbJwBaIH5dkvcJ6KCfy9EHkAVFUhxpou%2F0FJxF5AtBPkQfYkrRBrxN6ein0gCYdvJ9KD7AFcCf1dEmwhg3u7nmC9cHqsduldf7ktDOPXFbqsSVjJ%2FV0IpLrFI2BrRrfEkwljXjHe99RyYWo5KKKj2%2Brxo5H2jv7OjXjoa34GB453vuORy7EI8URjMsc57KlH0ckrb1dROSVEYmtmBgiCRyRXC2RBH%2Bpz50GU7ZI4oikPZFchUQS4SiEk3gSIeRHYBG%2Fchj4Sc3eUci1UsjwA3VWC02OQdozSGMoXheB2BKrIhC3m7leBhm3VFgD%2FwxwsgVWxyCtGeTs4uopXG4rYfZBOsvn13UMRq%2Fcm8dgQN%2FOwRweXyl4oOs5mODw%2F7TNdxIcfQ5GFstvJMibl9%2F6ENz8Dw%3D%3D%3C%2Fdiagram%3E%3C%2Fmxfile%3E" resource="https://test.draw.io/?dev=1&amp;lang=de#Halderg%2Fsandbox%2Fmaster%2Fimages%2Fschema.svg" style="background-color: rgb(255, 255, 255);"><defs><clipPath id="mx-clip-41-32-114-24-0"><rect x="41" y="32" width="114" height="24"/></clipPath><clipPath id="mx-clip-5-32-26-24-0"><rect x="5" y="32" width="26" height="24"/></clipPath><clipPath id="mx-clip-41-58-114-24-0"><rect x="41" y="58" width="114" height="24"/></clipPath><clipPath id="mx-clip-403-110-114-24-0"><rect x="403" y="110" width="114" height="24"/></clipPath><clipPath id="mx-clip-367-110-26-24-0"><rect x="367" y="110" width="26" height="24"/></clipPath><clipPath id="mx-clip-403-136-114-24-0"><rect x="403" y="136" width="114" height="24"/></clipPath><clipPath id="mx-clip-367-136-26-24-0"><rect x="367" y="136" width="26" height="24"/></clipPath><clipPath id="mx-clip-403-162-114-24-0"><rect x="403" y="162" width="114" height="24"/></clipPath><clipPath id="mx-clip-109-280-114-24-0"><rect x="109" y="280" width="114" height="24"/></clipPath><clipPath id="mx-clip-73-280-26-24-0"><rect x="73" y="280" width="26" height="24"/></clipPath><clipPath id="mx-clip-109-306-114-24-0"><rect x="109" y="306" width="114" height="24"/></clipPath><clipPath id="mx-clip-73-306-26-24-0"><rect x="73" y="306" width="26" height="24"/></clipPath><clipPath id="mx-clip-109-332-114-24-0"><rect x="109" y="332" width="114" height="24"/></clipPath><clipPath id="mx-clip-109-358-114-24-0"><rect x="109" y="358" width="114" height="24"/></clipPath><clipPath id="mx-clip-109-384-114-24-0"><rect x="109" y="384" width="114" height="24"/></clipPath><clipPath id="mx-clip-109-410-114-24-0"><rect x="109" y="410" width="114" height="24"/></clipPath><clipPath id="mx-clip-109-436-114-30-0"><rect x="109" y="436" width="114" height="30"/></clipPath></defs><g transform="translate(0.5,0.5)"><rect x="0" y="0" width="160" height="78" fill="#ffffff" stroke="#82b366" pointer-events="none"/><path d="M 0 26 L 0 0 L 160 0 L 160 26 Z" fill="#d5e8d4" stroke="#82b366" stroke-miterlimit="10" pointer-events="none"/><g fill="#000000" font-family="Helvetica" text-anchor="middle" font-size="12px"><text x="79.5" y="17.5">Customer</text></g><path d="M 160 52 L 0 52" fill="none" stroke="#000000" stroke-miterlimit="10" pointer-events="none"/><g fill="#000000" font-family="Helvetica" text-decoration="underline" clip-path="url(#mx-clip-41-32-114-24-0)" font-size="12px"><text x="42.5" y="44.5">CustomerId</text></g><path d="M 36 26 L 36 52" fill="none" stroke="#000000" stroke-miterlimit="10" pointer-events="none"/><g fill="#000000" font-family="Helvetica" clip-path="url(#mx-clip-5-32-26-24-0)" font-size="12px"><text x="6.5" y="44.5">PK</text></g><g fill="#000000" font-family="Helvetica" clip-path="url(#mx-clip-41-58-114-24-0)" font-size="12px"><text x="42.5" y="70.5">Name</text></g><path d="M 36 52 L 36 78" fill="none" stroke="#000000" stroke-miterlimit="10" pointer-events="none"/><rect x="362" y="78" width="160" height="104" fill="#ffffff" stroke="#82b366" pointer-events="none"/><path d="M 362 104 L 362 78 L 522 78 L 522 104 Z" fill="#d5e8d4" stroke="#82b366" stroke-miterlimit="10" pointer-events="none"/><g fill="#000000" font-family="Helvetica" text-anchor="middle" font-size="12px"><text x="441.5" y="95.5">Order</text></g><path d="M 522 130 L 362 130" fill="none" stroke="#000000" stroke-miterlimit="10" pointer-events="none"/><g fill="#000000" font-family="Helvetica" text-decoration="underline" clip-path="url(#mx-clip-403-110-114-24-0)" font-size="12px"><text x="404.5" y="122.5">OrderId</text></g><path d="M 398 104 L 398 130" fill="none" stroke="#000000" stroke-miterlimit="10" pointer-events="none"/><g fill="#000000" font-family="Helvetica" clip-path="url(#mx-clip-367-110-26-24-0)" font-size="12px"><text x="368.5" y="122.5">PK</text></g><g fill="#000000" font-family="Helvetica" clip-path="url(#mx-clip-403-136-114-24-0)" font-size="12px"><text x="404.5" y="148.5">CustomerId</text></g><path d="M 398 130 L 398 156" fill="none" stroke="#000000" stroke-miterlimit="10" pointer-events="none"/><g fill="#000000" font-family="Helvetica" clip-path="url(#mx-clip-367-136-26-24-0)" font-size="12px"><text x="368.5" y="148.5">FK1</text></g><g fill="#000000" font-family="Helvetica" clip-path="url(#mx-clip-403-162-114-24-0)" font-size="12px"><text x="404.5" y="174.5">Date</text></g><path d="M 398 156 L 398 182" fill="none" stroke="#000000" stroke-miterlimit="10" pointer-events="none"/><path d="M 160 39 L 180 39 Q 190 39 198.76 43.81 L 323.24 112.19 Q 332 117 342 117 L 362 117" fill="none" stroke="#000000" stroke-miterlimit="10" pointer-events="none"/><path d="M 164 35 L 164 43 M 168 35 L 168 43" fill="none" stroke="#000000" stroke-miterlimit="10" pointer-events="none"/><ellipse cx="350" cy="117" rx="3" ry="3" fill="#ffffff" stroke="#000000" pointer-events="none"/><path d="M 362 113 L 354 117 L 362 121" fill="none" stroke="#000000" stroke-miterlimit="10" pointer-events="none"/><rect x="68" y="248" width="160" height="214" fill="#ffffff" stroke="#82b366" pointer-events="none"/><path d="M 68 274 L 68 248 L 228 248 L 228 274 Z" fill="#d5e8d4" stroke="#82b366" stroke-miterlimit="10" pointer-events="none"/><g fill="#000000" font-family="Helvetica" text-anchor="middle" font-size="12px"><text x="147.5" y="265.5">Shipment</text></g><path d="M 228 300 L 68 300" fill="none" stroke="#000000" stroke-miterlimit="10" pointer-events="none"/><g fill="#000000" font-family="Helvetica" text-decoration="underline" clip-path="url(#mx-clip-109-280-114-24-0)" font-size="12px"><text x="110.5" y="292.5">ShipmentId</text></g><path d="M 104 274 L 104 300" fill="none" stroke="#000000" stroke-miterlimit="10" pointer-events="none"/><g fill="#000000" font-family="Helvetica" clip-path="url(#mx-clip-73-280-26-24-0)" font-size="12px"><text x="74.5" y="292.5">PK</text></g><g fill="#000000" font-family="Helvetica" clip-path="url(#mx-clip-109-306-114-24-0)" font-size="12px"><text x="110.5" y="318.5">OrderId</text></g><path d="M 104 300 L 104 326" fill="none" stroke="#000000" stroke-miterlimit="10" pointer-events="none"/><g fill="#000000" font-family="Helvetica" clip-path="url(#mx-clip-73-306-26-24-0)" font-size="12px"><text x="74.5" y="318.5">FK1</text></g><g fill="#000000" font-family="Helvetica" clip-path="url(#mx-clip-109-332-114-24-0)" font-size="12px"><text x="110.5" y="344.5">Field 1</text></g><path d="M 104 326 L 104 352" fill="none" stroke="#000000" stroke-miterlimit="10" pointer-events="none"/><g fill="#000000" font-family="Helvetica" clip-path="url(#mx-clip-109-358-114-24-0)" font-size="12px"><text x="110.5" y="370.5">Field 2</text></g><path d="M 104 352 L 104 378" fill="none" stroke="#000000" stroke-miterlimit="10" pointer-events="none"/><g fill="#000000" font-family="Helvetica" clip-path="url(#mx-clip-109-384-114-24-0)" font-size="12px"><text x="110.5" y="396.5">Field 3</text></g><path d="M 104 378 L 104 404" fill="none" stroke="#000000" stroke-miterlimit="10" pointer-events="none"/><g fill="#000000" font-family="Helvetica" clip-path="url(#mx-clip-109-410-114-24-0)" font-size="12px"><text x="110.5" y="422.5">Test</text></g><path d="M 104 404 L 104 430" fill="none" stroke="#000000" stroke-miterlimit="10" pointer-events="none"/><g fill="#000000" font-family="Helvetica" clip-path="url(#mx-clip-109-436-114-30-0)" font-size="12px"><text x="110.5" y="448.5">Test2</text></g><path d="M 104 430 L 104 462" fill="none" stroke="#000000" stroke-miterlimit="10" pointer-events="none"/><path d="M 362 130 L 342 130 Q 332 130 328.25 139.27 L 261.75 303.73 Q 258 313 248 313 L 228 313" fill="none" stroke="#000000" stroke-miterlimit="10" pointer-events="none"/><path d="M 358 134 L 358 126 M 354 134 L 354 126" fill="none" stroke="#000000" stroke-miterlimit="10" pointer-events="none"/><ellipse cx="240" cy="313" rx="3" ry="3" fill="#ffffff" stroke="#000000" pointer-events="none"/><path d="M 228 317 L 236 313 L 228 309" fill="none" stroke="#000000" stroke-miterlimit="10" pointer-events="none"/></g></svg>