<?xml version="1.0" encoding="UTF-8"?>
<!DOCTYPE svg PUBLIC "-//W3C//DTD SVG 1.1//EN" "http://www.w3.org/Graphics/SVG/1.1/DTD/svg11.dtd">
<svg xmlns="http://www.w3.org/2000/svg" xmlns:xlink="http://www.w3.org/1999/xlink" width="523px" height="419px" version="1.1" content="%3Cmxfile%20userAgent%3D%22Mozilla%2F5.0%20(Macintosh%3B%20Intel%20Mac%20OS%20X%2010_12_3)%20AppleWebKit%2F537.36%20(KHTML%2C%20like%20Gecko)%20Chrome%2F55.0.2883.95%20Safari%2F537.36%22%20version%3D%22%40DRAWIO-VERSION%40%22%20editor%3D%22www.draw.io%22%20type%3D%22github%22%3E%3Cdiagram%20name%3D%22Page-1%22%3E7Vxbb6M4GP01edwVBkKax0mmnV1NZ6dqKs2zAw6xxsGRcSZNf%2F3aYHOJS0qaG0huowp%2FNr59x4fPBzcDb7p6%2FcbgevmDRogMXCd6HXhfB647cn3xVxp2uSHw73JDzHCUm0BpmOE3pIyOsm5whNJaQU4p4XhdN4Y0SVDIazbIGN3Wiy0oqbe6hjEyDLMQEtP6C0d8mVvv3KC0%2F4NwvNQtg2Cc58xh%2BDtmdJOo9gaut8h%2B8uwV1HWpgaZLGNFtxeTdD7wpo5TnV6vXKSJyavW05fc9NOQW%2FWYo4W1u8MYhcEdOFPrBYr6IFn%2BpGv5AslFzMd2knK4QUx3mOz1J6RavCExEarKgCZ%2BpHEekwyUm0SPc0Y3sRcrFrOjUZEkZfhPlIRFZQBhENuMKA2KGRW2YkCkllGXteMiRv7U7Z7JG1RZDqbj3SQ8ZFKZHmHLdH0oIXKd4nvVQFllBFuNkQrkYmyqkx%2FNQb175T9Qq3YoiXVp7LktwRn8XUJH1m47QM4sYR68Vk3LMNyQmmbOdKKJyx2rN6DWkktsSkCBQMFpWwDhS5aBaA3FRcdHWs1gzMInFZBSNAY3I3V76o%2Bb0mtDNQcIRSyBHEzldaRV94qIyztKUYbIlPt1GfP4bmQhdwrW8FG7gGJJy2N6E07XyHUELDROmhiWv5xoa0puQ4DgR13nZifQhFmzxRZmzymqwTWi2LtI1DHESP%2BZN%2BE5pelZN%2BcJERX0LkoFpiaMIJRnYOORwXqyoNcUJz6Z4OBEf4Yip8%2FdwMBTDnIo0KNPiI4szPqWJwCXEGQCRWAxbJBfEJGJ0%2FSLgj4phHwPs6lL3TZQ3EsrHsN%2FVAXUs8Ko4ryHuGHh5Bryevp8Mq3mVZd5BSSt07UHpXEj6CCxyjI2U1rg6951dPKlVP2pPuxoIKl73gis53Tec%2Fh9cocuwiWPZ5PBj8nQCGbo3JJChgSVLH61d7Te4utv0ERgu%2F8kiGy9fPV72g70Q1m8ZSQDH%2F0zI7O2319GQefQ%2BPm283Ml4OWgN%2By7Ey3c2Xj7lgTdqcHa3H3hjw%2BmX3oPbqPnYqPloGrlp1Kx13wqkHr4DSySt3T1ucHe3iQSYavNXEQZZDukph4xaStSXAZMpDVsCaa%2ByNG23Os4gpmBrOB1FMdIRuJgAzHfPiECOaXJf5kxQEn2Rbw5FofvnN8ToC%2F0Bk53eb5d5K5hEP3NW%2BOSWNqUbFqKGEan%2Bc72wD4SNcmAHl2V1HTrvbnyVkWUT8gfVunlgN%2FwkkVjZCTv1nbA3dupV5CNWd7mV15F7Ffl7Fbn7FeXTYlR0jm0yMGXg2RKvV0g1ZaWc60k5wK%2B%2F%2BxSOavlkAWeRcjzQTSkHmPKyxqiVczop54AmTbubeg4wxWwr6BwTRg0b3N3xMOrKGrHdix39FvRoHrmtoGMKw1bQOYpI%2BikNA1MbfsCICBpxTve%2BpZIbUclNdR3X1IYtj7R3dj%2BV4aGp62geOd37lkduxCPFQYvbHM0yBR5LJK29XazInhGJqZhoIvEskfSWSLxP6nPnwZQpklgiaU8kvZBIAhT4cByOgyhyA7AI3znY%2ByJHbymkrxQyvKLOaqDJMkh7Bmlciv0iEFNilQRidzP9ZZC7lgqr514ATqbAahmkNYNcXFw9h8tNJcw8Lmf4vF%2BHXdTMHTzsArp22mX%2FkErBA8eedvH2%2F%2Bdaf4vAyaddRLL8DoG8ePk9Dd79%2Fw%3D%3D%3C%2Fdiagram%3E%3C%2Fmxfile%3E" resource="https://test.draw.io/?dev=1&amp;lang=de&amp;splash=0#Halderg%2Fsandbox%2Fmaster%2Fimages%252Fschema.svg" style="background-color: rgb(255, 255, 255);"><defs><clipPath id="mx-clip-41-32-114-24-0"><rect x="41" y="32" width="114" height="24"/></clipPath><clipPath id="mx-clip-5-32-26-24-0"><rect x="5" y="32" width="26" height="24"/></clipPath><clipPath id="mx-clip-41-58-114-24-0"><rect x="41" y="58" width="114" height="24"/></clipPath><clipPath id="mx-clip-403-110-114-24-0"><rect x="403" y="110" width="114" height="24"/></clipPath><clipPath id="mx-clip-367-110-26-24-0"><rect x="367" y="110" width="26" height="24"/></clipPath><clipPath id="mx-clip-403-136-114-24-0"><rect x="403" y="136" width="114" height="24"/></clipPath><clipPath id="mx-clip-367-136-26-24-0"><rect x="367" y="136" width="26" height="24"/></clipPath><clipPath id="mx-clip-403-162-114-24-0"><rect x="403" y="162" width="114" height="24"/></clipPath><clipPath id="mx-clip-91-234-114-24-0"><rect x="91" y="234" width="114" height="24"/></clipPath><clipPath id="mx-clip-55-234-26-24-0"><rect x="55" y="234" width="26" height="24"/></clipPath><clipPath id="mx-clip-91-260-114-24-0"><rect x="91" y="260" width="114" height="24"/></clipPath><clipPath id="mx-clip-55-260-26-24-0"><rect x="55" y="260" width="26" height="24"/></clipPath><clipPath id="mx-clip-91-286-114-24-0"><rect x="91" y="286" width="114" height="24"/></clipPath><clipPath id="mx-clip-91-312-114-24-0"><rect x="91" y="312" width="114" height="24"/></clipPath><clipPath id="mx-clip-91-338-114-24-0"><rect x="91" y="338" width="114" height="24"/></clipPath><clipPath id="mx-clip-91-364-114-24-0"><rect x="91" y="364" width="114" height="24"/></clipPath><clipPath id="mx-clip-91-390-114-30-0"><rect x="91" y="390" width="114" height="30"/></clipPath></defs><g transform="translate(0.5,0.5)"><rect x="0" y="0" width="160" height="78" fill="#ffffff" stroke="#000000" pointer-events="none"/><path d="M 0 26 L 0 0 L 160 0 L 160 26 Z" fill="#e0e0e0" stroke="#000000" stroke-miterlimit="10" pointer-events="none"/><g fill="#000000" font-family="Helvetica" text-anchor="middle" font-size="12px"><text x="79.5" y="17.5">Customer</text></g><path d="M 160 52 L 0 52" fill="none" stroke="#000000" stroke-miterlimit="10" pointer-events="none"/><g fill="#000000" font-family="Helvetica" text-decoration="underline" clip-path="url(#mx-clip-41-32-114-24-0)" font-size="12px"><text x="42.5" y="44.5">CustomerId</text></g><path d="M 36 26 L 36 52" fill="none" stroke="#000000" stroke-miterlimit="10" pointer-events="none"/><g fill="#000000" font-family="Helvetica" clip-path="url(#mx-clip-5-32-26-24-0)" font-size="12px"><text x="6.5" y="44.5">PK</text></g><g fill="#000000" font-family="Helvetica" clip-path="url(#mx-clip-41-58-114-24-0)" font-size="12px"><text x="42.5" y="70.5">Name</text></g><path d="M 36 52 L 36 78" fill="none" stroke="#000000" stroke-miterlimit="10" pointer-events="none"/><rect x="362" y="78" width="160" height="104" fill="#ffffff" stroke="#000000" pointer-events="none"/><path d="M 362 104 L 362 78 L 522 78 L 522 104 Z" fill="#e0e0e0" stroke="#000000" stroke-miterlimit="10" pointer-events="none"/><g fill="#000000" font-family="Helvetica" text-anchor="middle" font-size="12px"><text x="441.5" y="95.5">Order</text></g><path d="M 522 130 L 362 130" fill="none" stroke="#000000" stroke-miterlimit="10" pointer-events="none"/><g fill="#000000" font-family="Helvetica" text-decoration="underline" clip-path="url(#mx-clip-403-110-114-24-0)" font-size="12px"><text x="404.5" y="122.5">OrderId</text></g><path d="M 398 104 L 398 130" fill="none" stroke="#000000" stroke-miterlimit="10" pointer-events="none"/><g fill="#000000" font-family="Helvetica" clip-path="url(#mx-clip-367-110-26-24-0)" font-size="12px"><text x="368.5" y="122.5">PK</text></g><g fill="#000000" font-family="Helvetica" clip-path="url(#mx-clip-403-136-114-24-0)" font-size="12px"><text x="404.5" y="148.5">CustomerId</text></g><path d="M 398 130 L 398 156" fill="none" stroke="#000000" stroke-miterlimit="10" pointer-events="none"/><g fill="#000000" font-family="Helvetica" clip-path="url(#mx-clip-367-136-26-24-0)" font-size="12px"><text x="368.5" y="148.5">FK1</text></g><g fill="#000000" font-family="Helvetica" clip-path="url(#mx-clip-403-162-114-24-0)" font-size="12px"><text x="404.5" y="174.5">Date</text></g><path d="M 398 156 L 398 182" fill="none" stroke="#000000" stroke-miterlimit="10" pointer-events="none"/><path d="M 160 39 L 180 39 Q 190 39 198.76 43.81 L 323.24 112.19 Q 332 117 342 117 L 362 117" fill="none" stroke="#000000" stroke-miterlimit="10" pointer-events="none"/><path d="M 164 35 L 164 43 M 168 35 L 168 43" fill="none" stroke="#000000" stroke-miterlimit="10" pointer-events="none"/><ellipse cx="350" cy="117" rx="3" ry="3" fill="#ffffff" stroke="#000000" pointer-events="none"/><path d="M 362 113 L 354 117 L 362 121" fill="none" stroke="#000000" stroke-miterlimit="10" pointer-events="none"/><rect x="50" y="202" width="160" height="214" fill="#ffffff" stroke="#000000" pointer-events="none"/><path d="M 50 228 L 50 202 L 210 202 L 210 228 Z" fill="#e0e0e0" stroke="#000000" stroke-miterlimit="10" pointer-events="none"/><g fill="#000000" font-family="Helvetica" text-anchor="middle" font-size="12px"><text x="129.5" y="219.5">Shipment</text></g><path d="M 210 254 L 50 254" fill="none" stroke="#000000" stroke-miterlimit="10" pointer-events="none"/><g fill="#000000" font-family="Helvetica" text-decoration="underline" clip-path="url(#mx-clip-91-234-114-24-0)" font-size="12px"><text x="92.5" y="246.5">ShipmentId</text></g><path d="M 86 228 L 86 254" fill="none" stroke="#000000" stroke-miterlimit="10" pointer-events="none"/><g fill="#000000" font-family="Helvetica" clip-path="url(#mx-clip-55-234-26-24-0)" font-size="12px"><text x="56.5" y="246.5">PK</text></g><g fill="#000000" font-family="Helvetica" clip-path="url(#mx-clip-91-260-114-24-0)" font-size="12px"><text x="92.5" y="272.5">OrderId</text></g><path d="M 86 254 L 86 280" fill="none" stroke="#000000" stroke-miterlimit="10" pointer-events="none"/><g fill="#000000" font-family="Helvetica" clip-path="url(#mx-clip-55-260-26-24-0)" font-size="12px"><text x="56.5" y="272.5">FK1</text></g><g fill="#000000" font-family="Helvetica" clip-path="url(#mx-clip-91-286-114-24-0)" font-size="12px"><text x="92.5" y="298.5">Field 1</text></g><path d="M 86 280 L 86 306" fill="none" stroke="#000000" stroke-miterlimit="10" pointer-events="none"/><g fill="#000000" font-family="Helvetica" clip-path="url(#mx-clip-91-312-114-24-0)" font-size="12px"><text x="92.5" y="324.5">Field 2</text></g><path d="M 86 306 L 86 332" fill="none" stroke="#000000" stroke-miterlimit="10" pointer-events="none"/><g fill="#000000" font-family="Helvetica" clip-path="url(#mx-clip-91-338-114-24-0)" font-size="12px"><text x="92.5" y="350.5">Field 3</text></g><path d="M 86 332 L 86 358" fill="none" stroke="#000000" stroke-miterlimit="10" pointer-events="none"/><g fill="#000000" font-family="Helvetica" clip-path="url(#mx-clip-91-364-114-24-0)" font-size="12px"><text x="92.5" y="376.5">Test</text></g><path d="M 86 358 L 86 384" fill="none" stroke="#000000" stroke-miterlimit="10" pointer-events="none"/><g fill="#000000" font-family="Helvetica" clip-path="url(#mx-clip-91-390-114-30-0)" font-size="12px"><text x="92.5" y="402.5">Test2</text></g><path d="M 86 384 L 86 416" fill="none" stroke="#000000" stroke-miterlimit="10" pointer-events="none"/><path d="M 362 130 L 342 130 Q 332 130 326.43 138.3 L 245.57 258.7 Q 240 267 230 267 L 210 267" fill="none" stroke="#000000" stroke-miterlimit="10" pointer-events="none"/><path d="M 358 134 L 358 126 M 354 134 L 354 126" fill="none" stroke="#000000" stroke-miterlimit="10" pointer-events="none"/><ellipse cx="222" cy="267" rx="3" ry="3" fill="#ffffff" stroke="#000000" pointer-events="none"/><path d="M 210 271 L 218 267 L 210 263" fill="none" stroke="#000000" stroke-miterlimit="10" pointer-events="none"/></g></svg>