<?xml version="1.0" encoding="UTF-8"?>
<!DOCTYPE svg PUBLIC "-//W3C//DTD SVG 1.1//EN" "http://www.w3.org/Graphics/SVG/1.1/DTD/svg11.dtd">
<svg xmlns="http://www.w3.org/2000/svg" xmlns:xlink="http://www.w3.org/1999/xlink" width="523px" height="442px" version="1.1" content="%3Cmxfile%20userAgent%3D%22Mozilla%2F5.0%20(Macintosh%3B%20Intel%20Mac%20OS%20X%2010_12_3)%20AppleWebKit%2F537.36%20(KHTML%2C%20like%20Gecko)%20Chrome%2F56.0.2924.87%20Safari%2F537.36%22%20version%3D%22%40DRAWIO-VERSION%40%22%20editor%3D%22www.draw.io%22%20type%3D%22github%22%3E%3Cdiagram%20name%3D%22Page-1%22%3E7Vxdc9soFP01ftwdIcmy%2FVi7SXen6TaTZKbPWMI2Uyw8CNdxfv2CBPoicqT4S54hzXTEBYHgnnt0OSYeeLP16zcGN6sfNEJk4DrR68D7OnDdkeuL%2F6Vhrw3jzLBkOMpMoDA84zekjI6ybnGEkkpDTinheFM1hjSOUcgrNsgY3VWbLSipjrqBS2QYnkNITOsvHPFVZh27QWH%2FB%2BHlSo8MgklWM4fh7yWj21iNN3C9RfqTVa%2Bh7ktNNFnBiO5KJu9u4M0YpTy7Wr%2FOEJFLq5ctu%2B%2B%2BoTZ%2FboZi3uYGbxICd%2BREoR8s5oto8Zfq4Q8kW7UWs23C6Rox9cB8rxcp2eE1gbEoTRc05s%2BqxhHlcIVJ9AD3dCufIuFiVXRpuqIMv4n2kIgqIAyimnGFAbHCojdMyIwSytJxPOTIf5U7n2WPaiyGEnHvo54yyE0PMOH6eSghcJPgefqEsskasiWOp5SLualGej731eGV%2F0Sv0q0o0q2159ICZ%2FR3DhXZv%2BkIvbKIcfRaMinHfENikTnbiyaqdqJiRsVQoIq7ApAgUDBalcA4Uu2gioFl3nE%2B1pOIGRgvxWLkgwGNyH2t%2FNFwOib0cJBwxGLI0VQuV1JGn7gozbMwpZhsiU%2B3EZ%2F%2FRiZCV3AjL4UbOIakmLY35XSjfEfQQsOEqWnJ67mGhvQmJHgZi%2Bus7VT6EAu2%2BKLMaWcV2MY0jYtkA0McLx%2ByIXynMD2poXxhoqK%2FBUnBtMJRhOIUbBxyOM8jakNxzNMlHk7Fr3DEzPl7OBiKac5EGRRl8SubMz6jscAlxCkAkQiGHZIBMY0Y3bwI%2BKN82l2AXQ5130R5I6F8DPt9FVBdgVfGeQVxXeDlGfB6%2FH40rOZllnkHJa3QVYPSqZD0EVjkHBsprTE6687O39TqOSpvuwoISl73ggs53Tec%2Fh9co%2FOwiWPZ5PBr8ngCGbpXJJChgSVLH61d7Te4ut%2F0ERgu%2F8kimy9fPF%2F2g1oK67fMJIDjfyZl9urj9TRlHr2PT5sv9zJfDlrDvg%2F58tjmy8e88EYNzu73C29iOP3ce3CbNXfNmjvTyFWzZq37liB1%2Fx1YImnt7kmDu%2FtNJMBUm7%2BKNMhyyI1yyKilRH0eMJnSsCWQ9ipL03ar5wxiCraG01G0RDoDFwuA%2Bf4JEcgxje%2BKmimKoy%2Fyk0PR6O7pDTH6Qn%2FAeK%2F320XdGsbRz4wVPrmlTeiWhahhRur5uQ7sA2mjnNjBsCzHofPuxlcZWbogf1DlMQ%2Fshh8lEks7Yae6E%2FYmTrWLbMbqLrf0cWStI7%2FWkVvvKFsWo6NTbJOBKQM%2Fr%2FBmjdRQVsq5nJQD%2FHENB17LNws4iZTjgX5KOcCUlzVGrZzTSzkHNGna%2FdRzgClmW0GnSxo1bHB3z9OoC2vEdi%2FW%2BVPQzjxyXUHHFIatoNOJSG5TGgamNnyPERE04hzvfUslV6KSq%2Bo6rqkNWx5p7%2BzbVIaHpq6jeeR471seuRKP5ActrnM0yxR4LJG09nYekTdGJKZioonEs0Rys0TifVKfOw2mTJHEEkl7IrkJiSRAgQ8n4SSIIjcAi%2FCdg70vcvaWQm6VQoYX1FkNNFkGac8gjaF4WwRiSqySQOxu5nYZZNxSYfXcM8DJFFgtg7RmkLOLq6dwuamEmcflDJ%2Ff1mEXtXIHD7uAvp12qR9SyXmg62kXr%2F431%2FpbBI4%2B7SKKxXcIZM2L72nw7v4H%3C%2Fdiagram%3E%3C%2Fmxfile%3E" resource="https://test.draw.io/?dev=1&amp;lang=de#Halderg%2Fsandbox%2Fmaster%2Fimages%2Fschema.svg" style="background-color: rgb(255, 255, 255);"><defs><clipPath id="mx-clip-41-32-114-24-0"><rect x="41" y="32" width="114" height="24"/></clipPath><clipPath id="mx-clip-5-32-26-24-0"><rect x="5" y="32" width="26" height="24"/></clipPath><clipPath id="mx-clip-41-58-114-24-0"><rect x="41" y="58" width="114" height="24"/></clipPath><clipPath id="mx-clip-403-110-114-24-0"><rect x="403" y="110" width="114" height="24"/></clipPath><clipPath id="mx-clip-367-110-26-24-0"><rect x="367" y="110" width="26" height="24"/></clipPath><clipPath id="mx-clip-403-136-114-24-0"><rect x="403" y="136" width="114" height="24"/></clipPath><clipPath id="mx-clip-367-136-26-24-0"><rect x="367" y="136" width="26" height="24"/></clipPath><clipPath id="mx-clip-403-162-114-24-0"><rect x="403" y="162" width="114" height="24"/></clipPath><clipPath id="mx-clip-91-257-114-24-0"><rect x="91" y="257" width="114" height="24"/></clipPath><clipPath id="mx-clip-55-257-26-24-0"><rect x="55" y="257" width="26" height="24"/></clipPath><clipPath id="mx-clip-91-283-114-24-0"><rect x="91" y="283" width="114" height="24"/></clipPath><clipPath id="mx-clip-55-283-26-24-0"><rect x="55" y="283" width="26" height="24"/></clipPath><clipPath id="mx-clip-91-309-114-24-0"><rect x="91" y="309" width="114" height="24"/></clipPath><clipPath id="mx-clip-91-335-114-24-0"><rect x="91" y="335" width="114" height="24"/></clipPath><clipPath id="mx-clip-91-361-114-24-0"><rect x="91" y="361" width="114" height="24"/></clipPath><clipPath id="mx-clip-91-387-114-24-0"><rect x="91" y="387" width="114" height="24"/></clipPath><clipPath id="mx-clip-91-413-114-30-0"><rect x="91" y="413" width="114" height="30"/></clipPath></defs><g transform="translate(0.5,0.5)"><rect x="0" y="0" width="160" height="78" fill="#ffffff" stroke="#000000" pointer-events="none"/><path d="M 0 26 L 0 0 L 160 0 L 160 26 Z" fill="#e0e0e0" stroke="#000000" stroke-miterlimit="10" pointer-events="none"/><g fill="#000000" font-family="Helvetica" text-anchor="middle" font-size="12px"><text x="79.5" y="17.5">Customer</text></g><path d="M 160 52 L 0 52" fill="none" stroke="#000000" stroke-miterlimit="10" pointer-events="none"/><g fill="#000000" font-family="Helvetica" text-decoration="underline" clip-path="url(#mx-clip-41-32-114-24-0)" font-size="12px"><text x="42.5" y="44.5">CustomerId</text></g><path d="M 36 26 L 36 52" fill="none" stroke="#000000" stroke-miterlimit="10" pointer-events="none"/><g fill="#000000" font-family="Helvetica" clip-path="url(#mx-clip-5-32-26-24-0)" font-size="12px"><text x="6.5" y="44.5">PK</text></g><g fill="#000000" font-family="Helvetica" clip-path="url(#mx-clip-41-58-114-24-0)" font-size="12px"><text x="42.5" y="70.5">Name</text></g><path d="M 36 52 L 36 78" fill="none" stroke="#000000" stroke-miterlimit="10" pointer-events="none"/><rect x="362" y="78" width="160" height="104" fill="#ffffff" stroke="#000000" pointer-events="none"/><path d="M 362 104 L 362 78 L 522 78 L 522 104 Z" fill="#e0e0e0" stroke="#000000" stroke-miterlimit="10" pointer-events="none"/><g fill="#000000" font-family="Helvetica" text-anchor="middle" font-size="12px"><text x="441.5" y="95.5">Order</text></g><path d="M 522 130 L 362 130" fill="none" stroke="#000000" stroke-miterlimit="10" pointer-events="none"/><g fill="#000000" font-family="Helvetica" text-decoration="underline" clip-path="url(#mx-clip-403-110-114-24-0)" font-size="12px"><text x="404.5" y="122.5">OrderId</text></g><path d="M 398 104 L 398 130" fill="none" stroke="#000000" stroke-miterlimit="10" pointer-events="none"/><g fill="#000000" font-family="Helvetica" clip-path="url(#mx-clip-367-110-26-24-0)" font-size="12px"><text x="368.5" y="122.5">PK</text></g><g fill="#000000" font-family="Helvetica" clip-path="url(#mx-clip-403-136-114-24-0)" font-size="12px"><text x="404.5" y="148.5">CustomerId</text></g><path d="M 398 130 L 398 156" fill="none" stroke="#000000" stroke-miterlimit="10" pointer-events="none"/><g fill="#000000" font-family="Helvetica" clip-path="url(#mx-clip-367-136-26-24-0)" font-size="12px"><text x="368.5" y="148.5">FK1</text></g><g fill="#000000" font-family="Helvetica" clip-path="url(#mx-clip-403-162-114-24-0)" font-size="12px"><text x="404.5" y="174.5">Date</text></g><path d="M 398 156 L 398 182" fill="none" stroke="#000000" stroke-miterlimit="10" pointer-events="none"/><path d="M 160 39 L 180 39 Q 190 39 198.76 43.81 L 323.24 112.19 Q 332 117 342 117 L 362 117" fill="none" stroke="#000000" stroke-miterlimit="10" pointer-events="none"/><path d="M 164 35 L 164 43 M 168 35 L 168 43" fill="none" stroke="#000000" stroke-miterlimit="10" pointer-events="none"/><ellipse cx="350" cy="117" rx="3" ry="3" fill="#ffffff" stroke="#000000" pointer-events="none"/><path d="M 362 113 L 354 117 L 362 121" fill="none" stroke="#000000" stroke-miterlimit="10" pointer-events="none"/><rect x="50" y="225" width="160" height="214" fill="#ffffff" stroke="#000000" pointer-events="none"/><path d="M 50 251 L 50 225 L 210 225 L 210 251 Z" fill="#e0e0e0" stroke="#000000" stroke-miterlimit="10" pointer-events="none"/><g fill="#000000" font-family="Helvetica" text-anchor="middle" font-size="12px"><text x="129.5" y="242.5">Shipment</text></g><path d="M 210 277 L 50 277" fill="none" stroke="#000000" stroke-miterlimit="10" pointer-events="none"/><g fill="#000000" font-family="Helvetica" text-decoration="underline" clip-path="url(#mx-clip-91-257-114-24-0)" font-size="12px"><text x="92.5" y="269.5">ShipmentId</text></g><path d="M 86 251 L 86 277" fill="none" stroke="#000000" stroke-miterlimit="10" pointer-events="none"/><g fill="#000000" font-family="Helvetica" clip-path="url(#mx-clip-55-257-26-24-0)" font-size="12px"><text x="56.5" y="269.5">PK</text></g><g fill="#000000" font-family="Helvetica" clip-path="url(#mx-clip-91-283-114-24-0)" font-size="12px"><text x="92.5" y="295.5">OrderId</text></g><path d="M 86 277 L 86 303" fill="none" stroke="#000000" stroke-miterlimit="10" pointer-events="none"/><g fill="#000000" font-family="Helvetica" clip-path="url(#mx-clip-55-283-26-24-0)" font-size="12px"><text x="56.5" y="295.5">FK1</text></g><g fill="#000000" font-family="Helvetica" clip-path="url(#mx-clip-91-309-114-24-0)" font-size="12px"><text x="92.5" y="321.5">Field 1</text></g><path d="M 86 303 L 86 329" fill="none" stroke="#000000" stroke-miterlimit="10" pointer-events="none"/><g fill="#000000" font-family="Helvetica" clip-path="url(#mx-clip-91-335-114-24-0)" font-size="12px"><text x="92.5" y="347.5">Field 2</text></g><path d="M 86 329 L 86 355" fill="none" stroke="#000000" stroke-miterlimit="10" pointer-events="none"/><g fill="#000000" font-family="Helvetica" clip-path="url(#mx-clip-91-361-114-24-0)" font-size="12px"><text x="92.5" y="373.5">Field 3</text></g><path d="M 86 355 L 86 381" fill="none" stroke="#000000" stroke-miterlimit="10" pointer-events="none"/><g fill="#000000" font-family="Helvetica" clip-path="url(#mx-clip-91-387-114-24-0)" font-size="12px"><text x="92.5" y="399.5">Test</text></g><path d="M 86 381 L 86 407" fill="none" stroke="#000000" stroke-miterlimit="10" pointer-events="none"/><g fill="#000000" font-family="Helvetica" clip-path="url(#mx-clip-91-413-114-30-0)" font-size="12px"><text x="92.5" y="425.5">Test2</text></g><path d="M 86 407 L 86 439" fill="none" stroke="#000000" stroke-miterlimit="10" pointer-events="none"/><path d="M 362 130 L 342 130 Q 332 130 327.02 138.67 L 244.98 281.33 Q 240 290 230 290 L 210 290" fill="none" stroke="#000000" stroke-miterlimit="10" pointer-events="none"/><path d="M 358 134 L 358 126 M 354 134 L 354 126" fill="none" stroke="#000000" stroke-miterlimit="10" pointer-events="none"/><ellipse cx="222" cy="290" rx="3" ry="3" fill="#ffffff" stroke="#000000" pointer-events="none"/><path d="M 210 294 L 218 290 L 210 286" fill="none" stroke="#000000" stroke-miterlimit="10" pointer-events="none"/></g></svg>