<?xml version="1.0" encoding="UTF-8"?>
<!DOCTYPE svg PUBLIC "-//W3C//DTD SVG 1.1//EN" "http://www.w3.org/Graphics/SVG/1.1/DTD/svg11.dtd">
<svg xmlns="http://www.w3.org/2000/svg" xmlns:xlink="http://www.w3.org/1999/xlink" width="523px" height="425px" version="1.1" content="%3Cmxfile%20userAgent%3D%22Mozilla%2F5.0%20(Macintosh%3B%20Intel%20Mac%20OS%20X%2010_12_3)%20AppleWebKit%2F537.36%20(KHTML%2C%20like%20Gecko)%20Chrome%2F55.0.2883.95%20Safari%2F537.36%22%20version%3D%22%40DRAWIO-VERSION%40%22%20editor%3D%22www.draw.io%22%20type%3D%22github%22%3E%3Cdiagram%20name%3D%22Page-1%22%3E7Vxbb6M4GP01edwVt5DmcZJpZ1fT2amaSvPsgEOscTAyzqTpr18bbG4uKTRtApLbqsKfjW%2Ff8eHzwcnEXe6ev1GQbH%2BQEOKJY4XPE%2FfrxHFmjsf%2FC8MxN%2FjeTW6IKApzk10aVugFSqMlrXsUwrRWkBGCGUrqxoDEMQxYzQYoJYd6sQ3B9VYTEEHNsAoA1q2%2FUMi2ufXG8Uv7PxBFW9Wy7c%2FznDUIfkeU7GPZ3sRxN9lPnr0Dqi450HQLQnKomNzbibukhLD8ave8hFhMrZq2%2FL67ltyi3xTGrMsN7jywnZkVBp6%2FWW%2FCzV%2Byhj8A7%2BVcLPcpIztIZYfZUU1SekA7DGKeWmxIzFYyx%2BLpYItweA%2BOZC96kTI%2BKyq12BKKXnh5gHmWzQ08mzKJAT7DvDaE8ZJgQrN2XGiJ39qdK1GjbIvClN%2F7oIZsF6Z7kDLVH4IxSFK0znooiuwAjVC8IIyPTRZS47mrNy%2F9x2sVboWhKq08lyUYJb8LqIj6dUeomYWUweeKSTrmG%2BSTzOiRF5G5c7lm1BqSyUMJSNuXMNpWwDiT5YBcA1FRcdHWI18zII74ZBSN2QqRx0b6rebUmlDNAcwgjQGDCzFdaRV9%2FKIyztKUYbIjPp1WfP4b6gjdgkRccjcwBHA5bHfBSCJ9h%2BFGwYTKYYnrtYKG8CbAKIr5dV52IXyIOFt8keasshpsY5KtizQBAYqj%2B7wJzypNj7Ipj5sIr2%2BDMzBtURjCOAMbAwysixWVEBSzbIqnC%2F7HHbG0%2Fp5OpnyYS562yzT%2FE8UpW5KY4xKgDICQL4YDFAtiEVKSPHH4w2LYfYBdXeqejvJWQnkb9sc6oPoCr4rzGuL6wMvV4PXw%2FWxYrass8wpKOqGrAaWPQtJbYBFjbKW01tXZdHbxpJb9qD3taiCoeN31L%2BR0T3P6f2AHP4dNLMMmpx%2BT5xPI1LkigUw1LBn66Oxqr8XVw6YPX3P5TxqaePni8bLnN0JYr2MkYVvee0Jmt9neQEPm2ev4NPHyIONlvzPshxAv35h4%2BZwH3qzF2cN%2B4M01p3%2F2HtxEzX2j5t40ctWoWem%2BFUjdfbcNkXR297zF3cMmEltXm7%2FyMMhwyEg5ZNZRov4cMOnSsCGQ7ipL23Zr4AyiC7aa02EYQRWB8wlA7PgIMWCIxLdlzgLG4Rfx5pAXun18gZQ8kR8gPqr9dpm3A3H4M2eFd25pU7KnAWwZkew%2FUwv7RNgoBnZyWVbXofXqxlcaaTYhf2Ctmyd2ww8CiZWdsFXfCbtzq15FPmJ5l1N5HdmoyGtU5DQryqdFq%2Bgjtsm2LgOvtijZQdmUkXIuJ%2BXYXv3dJ3dUxyeLY70J3g5SjmsPU8qxdXlZYdTIOYOUc%2Bw2TXuYeo6ti9lG0OkTRk1b3D3wMOrCGrHZi%2FV%2BC9qbR64r6OjCsBF0ehHJOKVhW9eG7xDEnEas871vqORKVHJVXcfRtWHDI92dPU5leKrrOopHzve%2B4ZEr8Uhx0OI6R7N0gccQSWdvFytyZESiKyaKSFxDJKMlEved%2BtzHYEoXSQyRdCeSUUgkPvQ9MA%2Fmfhg6vr0JXjnY%2ByRGbyhkrBQyvaDOqqHJMEh3BmldiuMiEF1iFQRidjPjZZCbjgqre%2BITme%2BGky6wGgbpzCCfLq5%2BhMt1JUw%2FLqf5fFyHXeTMnTzsYg%2FttEvzkErBA31Pu7jNz1yrbxE4%2B7QLT5bfIZAXL7%2Bnwb39Hw%3D%3D%3C%2Fdiagram%3E%3C%2Fmxfile%3E" resource="https://test.draw.io/?dev=1&amp;lang=de&amp;splash=0#Halderg%2Fsandbox%2Fmaster%2Fimages%252Fschema.svg" style="background-color: rgb(255, 255, 255);"><defs><clipPath id="mx-clip-41-32-114-24-0"><rect x="41" y="32" width="114" height="24"/></clipPath><clipPath id="mx-clip-5-32-26-24-0"><rect x="5" y="32" width="26" height="24"/></clipPath><clipPath id="mx-clip-41-58-114-24-0"><rect x="41" y="58" width="114" height="24"/></clipPath><clipPath id="mx-clip-403-110-114-24-0"><rect x="403" y="110" width="114" height="24"/></clipPath><clipPath id="mx-clip-367-110-26-24-0"><rect x="367" y="110" width="26" height="24"/></clipPath><clipPath id="mx-clip-403-136-114-24-0"><rect x="403" y="136" width="114" height="24"/></clipPath><clipPath id="mx-clip-367-136-26-24-0"><rect x="367" y="136" width="26" height="24"/></clipPath><clipPath id="mx-clip-403-162-114-24-0"><rect x="403" y="162" width="114" height="24"/></clipPath><clipPath id="mx-clip-91-234-114-24-0"><rect x="91" y="234" width="114" height="24"/></clipPath><clipPath id="mx-clip-55-234-26-24-0"><rect x="55" y="234" width="26" height="24"/></clipPath><clipPath id="mx-clip-91-260-114-24-0"><rect x="91" y="260" width="114" height="24"/></clipPath><clipPath id="mx-clip-55-260-26-24-0"><rect x="55" y="260" width="26" height="24"/></clipPath><clipPath id="mx-clip-91-286-114-24-0"><rect x="91" y="286" width="114" height="24"/></clipPath><clipPath id="mx-clip-91-312-114-24-0"><rect x="91" y="312" width="114" height="24"/></clipPath><clipPath id="mx-clip-91-338-114-24-0"><rect x="91" y="338" width="114" height="24"/></clipPath><clipPath id="mx-clip-91-364-114-24-0"><rect x="91" y="364" width="114" height="24"/></clipPath><clipPath id="mx-clip-91-390-114-36-0"><rect x="91" y="390" width="114" height="36"/></clipPath></defs><g transform="translate(0.5,0.5)"><rect x="0" y="0" width="160" height="78" fill="#ffffff" stroke="#000000" pointer-events="none"/><path d="M 0 26 L 0 0 L 160 0 L 160 26 Z" fill="#e0e0e0" stroke="#000000" stroke-miterlimit="10" pointer-events="none"/><g fill="#000000" font-family="Helvetica" text-anchor="middle" font-size="12px"><text x="79.5" y="17.5">Customer</text></g><path d="M 160 52 L 0 52" fill="none" stroke="#000000" stroke-miterlimit="10" pointer-events="none"/><g fill="#000000" font-family="Helvetica" text-decoration="underline" clip-path="url(#mx-clip-41-32-114-24-0)" font-size="12px"><text x="42.5" y="44.5">CustomerId</text></g><path d="M 36 26 L 36 52" fill="none" stroke="#000000" stroke-miterlimit="10" pointer-events="none"/><g fill="#000000" font-family="Helvetica" clip-path="url(#mx-clip-5-32-26-24-0)" font-size="12px"><text x="6.5" y="44.5">PK</text></g><g fill="#000000" font-family="Helvetica" clip-path="url(#mx-clip-41-58-114-24-0)" font-size="12px"><text x="42.5" y="70.5">Name</text></g><path d="M 36 52 L 36 78" fill="none" stroke="#000000" stroke-miterlimit="10" pointer-events="none"/><rect x="362" y="78" width="160" height="104" fill="#ffffff" stroke="#000000" pointer-events="none"/><path d="M 362 104 L 362 78 L 522 78 L 522 104 Z" fill="#e0e0e0" stroke="#000000" stroke-miterlimit="10" pointer-events="none"/><g fill="#000000" font-family="Helvetica" text-anchor="middle" font-size="12px"><text x="441.5" y="95.5">Order</text></g><path d="M 522 130 L 362 130" fill="none" stroke="#000000" stroke-miterlimit="10" pointer-events="none"/><g fill="#000000" font-family="Helvetica" text-decoration="underline" clip-path="url(#mx-clip-403-110-114-24-0)" font-size="12px"><text x="404.5" y="122.5">OrderId</text></g><path d="M 398 104 L 398 130" fill="none" stroke="#000000" stroke-miterlimit="10" pointer-events="none"/><g fill="#000000" font-family="Helvetica" clip-path="url(#mx-clip-367-110-26-24-0)" font-size="12px"><text x="368.5" y="122.5">PK</text></g><g fill="#000000" font-family="Helvetica" clip-path="url(#mx-clip-403-136-114-24-0)" font-size="12px"><text x="404.5" y="148.5">CustomerId</text></g><path d="M 398 130 L 398 156" fill="none" stroke="#000000" stroke-miterlimit="10" pointer-events="none"/><g fill="#000000" font-family="Helvetica" clip-path="url(#mx-clip-367-136-26-24-0)" font-size="12px"><text x="368.5" y="148.5">FK1</text></g><g fill="#000000" font-family="Helvetica" clip-path="url(#mx-clip-403-162-114-24-0)" font-size="12px"><text x="404.5" y="174.5">Date</text></g><path d="M 398 156 L 398 182" fill="none" stroke="#000000" stroke-miterlimit="10" pointer-events="none"/><path d="M 160 39 L 180 39 Q 190 39 198.76 43.81 L 323.24 112.19 Q 332 117 342 117 L 362 117" fill="none" stroke="#000000" stroke-miterlimit="10" pointer-events="none"/><path d="M 164 35 L 164 43 M 168 35 L 168 43" fill="none" stroke="#000000" stroke-miterlimit="10" pointer-events="none"/><ellipse cx="350" cy="117" rx="3" ry="3" fill="#ffffff" stroke="#000000" pointer-events="none"/><path d="M 362 113 L 354 117 L 362 121" fill="none" stroke="#000000" stroke-miterlimit="10" pointer-events="none"/><rect x="50" y="202" width="160" height="220" fill="#ffffff" stroke="#000000" pointer-events="none"/><path d="M 50 228 L 50 202 L 210 202 L 210 228 Z" fill="#e0e0e0" stroke="#000000" stroke-miterlimit="10" pointer-events="none"/><g fill="#000000" font-family="Helvetica" text-anchor="middle" font-size="12px"><text x="129.5" y="219.5">Shipment</text></g><path d="M 210 254 L 50 254" fill="none" stroke="#000000" stroke-miterlimit="10" pointer-events="none"/><g fill="#000000" font-family="Helvetica" text-decoration="underline" clip-path="url(#mx-clip-91-234-114-24-0)" font-size="12px"><text x="92.5" y="246.5">ShipmentId</text></g><path d="M 86 228 L 86 254" fill="none" stroke="#000000" stroke-miterlimit="10" pointer-events="none"/><g fill="#000000" font-family="Helvetica" clip-path="url(#mx-clip-55-234-26-24-0)" font-size="12px"><text x="56.5" y="246.5">PK</text></g><g fill="#000000" font-family="Helvetica" clip-path="url(#mx-clip-91-260-114-24-0)" font-size="12px"><text x="92.5" y="272.5">OrderId</text></g><path d="M 86 254 L 86 280" fill="none" stroke="#000000" stroke-miterlimit="10" pointer-events="none"/><g fill="#000000" font-family="Helvetica" clip-path="url(#mx-clip-55-260-26-24-0)" font-size="12px"><text x="56.5" y="272.5">FK1</text></g><g fill="#000000" font-family="Helvetica" clip-path="url(#mx-clip-91-286-114-24-0)" font-size="12px"><text x="92.5" y="298.5">Field 1</text></g><path d="M 86 280 L 86 306" fill="none" stroke="#000000" stroke-miterlimit="10" pointer-events="none"/><g fill="#000000" font-family="Helvetica" clip-path="url(#mx-clip-91-312-114-24-0)" font-size="12px"><text x="92.5" y="324.5">Field 2</text></g><path d="M 86 306 L 86 332" fill="none" stroke="#000000" stroke-miterlimit="10" pointer-events="none"/><g fill="#000000" font-family="Helvetica" clip-path="url(#mx-clip-91-338-114-24-0)" font-size="12px"><text x="92.5" y="350.5">Field 3</text></g><path d="M 86 332 L 86 358" fill="none" stroke="#000000" stroke-miterlimit="10" pointer-events="none"/><g fill="#000000" font-family="Helvetica" clip-path="url(#mx-clip-91-364-114-24-0)" font-size="12px"><text x="92.5" y="376.5">Test</text></g><path d="M 86 358 L 86 384" fill="none" stroke="#000000" stroke-miterlimit="10" pointer-events="none"/><g fill="#000000" font-family="Helvetica" clip-path="url(#mx-clip-91-390-114-36-0)" font-size="12px"><text x="92.5" y="402.5">Test2</text></g><path d="M 86 384 L 86 422" fill="none" stroke="#000000" stroke-miterlimit="10" pointer-events="none"/><path d="M 362 130 L 342 130 Q 332 130 326.43 138.3 L 245.57 258.7 Q 240 267 230 267 L 210 267" fill="none" stroke="#000000" stroke-miterlimit="10" pointer-events="none"/><path d="M 358 134 L 358 126 M 354 134 L 354 126" fill="none" stroke="#000000" stroke-miterlimit="10" pointer-events="none"/><ellipse cx="222" cy="267" rx="3" ry="3" fill="#ffffff" stroke="#000000" pointer-events="none"/><path d="M 210 271 L 218 267 L 210 263" fill="none" stroke="#000000" stroke-miterlimit="10" pointer-events="none"/></g></svg>