<?xml version="1.0" encoding="UTF-8"?>
<!DOCTYPE svg PUBLIC "-//W3C//DTD SVG 1.1//EN" "http://www.w3.org/Graphics/SVG/1.1/DTD/svg11.dtd">
<svg xmlns="http://www.w3.org/2000/svg" xmlns:xlink="http://www.w3.org/1999/xlink" width="523px" height="385px" version="1.1" content="%3Cmxfile%20userAgent%3D%22Mozilla%2F5.0%20(Macintosh%3B%20Intel%20Mac%20OS%20X%2010_12_3)%20AppleWebKit%2F537.36%20(KHTML%2C%20like%20Gecko)%20Chrome%2F55.0.2883.95%20Safari%2F537.36%22%20version%3D%22%40DRAWIO-VERSION%40%22%20editor%3D%22www.draw.io%22%20type%3D%22github%22%3E%3Cdiagram%20name%3D%22Page-1%22%3E7Vxdc9soFP01ftwdIcly%2FFi7SXen6TaTZKbPWMIyUyw8CNdxfv2CBPoicqQ4tuUZ2kxGXBAI7rlHl2PikTdfv3xjcLP6QSNERq4TvYy8ryPXnbi%2B%2BC0N%2B9wQ%2BDe5IWY4yk2gNDzhV6SMjrJucYTSWkNOKeF4UzeGNElQyGs2yBjd1ZstKamPuoExMgxPISSm9ReO%2BCq33rhBaf8H4XilRwbBNK9ZwPB3zOg2UeONXG%2BZ%2Fcur11D3pSaarmBEdxWTdzvy5oxSnl%2BtX%2BaIyKXVy5bfd9dSWzw3QwnvcoM3DYE7caLQD5aLZbT8S%2FXwB5KtWov5NuV0jZh6YL7Xi5Tu8JrARJRmS5rwJ1XjiHK4wiS6h3u6lU%2BRcrEqujRbUYZfRXtIRBUQBlHNuMKAWGHRGyZkTgll2TgecuT%2F2p1Pskc1FkOpuPdBTxkUpnuYcv08lBC4SfEie0LZZA1ZjJMZ5WJuqpGez119eOU%2F0at0K4p0a%2B25rMAZ%2FV1ARfZvOkKvLGIcvVRMyjHfkFhkzvaiiaqdqpjRMaSKuxKQIFAwWlXAOFHtoIqBuOi4GOtRxAxMYrEYxWBAI3LfKL83nI4JPRwkHLEEcjSTy5VW0ScuKvMsTRkmO%2BLTbcXnv5GJ0BXcyEvhBo4hKaftzTjdKN8RtNQwYWpa8nqhoSG9CQmOE3Gdt51JH2LBFl%2BUOeusBtuEZnGRbmCIk%2Fg%2BH8J3StOjGsoXJir6W5IMTCscRSjJwMYhh4siojYUJzxb4vFM%2FAhHzJ2%2Fx6OxmOZclEFZFj%2ByOeNzmghcQpwBEIlg2CEZELOI0c2zgD8qpt0H2NVQ902UtxLK%2B7Df1wHVF3hVnNcQ1wdengGvh%2B9Hw2pRZZk3UNIJXQ0ofRaS3gOLnGMrpbVGZ9PZxZtaPUftbVcDQcXrXnAmp%2FuG0%2F%2BDa3QaNnEsmxx%2BTR5PIGP3ggQyNrBk6aOzq%2F0WVw%2BbPgLD5T9ZZPPls%2BfLftBIYf2OmQRw%2FI%2BkzF5zvIGmzJO38Wnz5UHmy0Fn2A8hX76x%2BfIxL7xJi7OH%2FcKbGk4%2F9R7cZs19s%2BbeNHLRrFnrvhVI3X0Hlkg6u3va4u5hEwkw1eavIg2yHHKlHDLpKFGfBkymNGwJpLvK0rbdGjiDmIKt4XQUxUhn4GIBMN8%2FIgI5psltWTNDSfRFfnIoGt0%2BviJGn%2BkPmOz1frusW8Mk%2Bpmzwge3tCndshC1zEg9P9eBfSBtlBM7GJbVOHTe3PgqI8sW5A%2BqPeaB3fCDRGJlJ%2BzUd8Le1Kl3kc9Y3eVWPo5sdOQ3OnKbHeXLYnT0GdtkYMrATyu8WSM1lJVyziflANDAgddVWnGdd8HbQcrxwDClHGDKyxqjVs4ZpJwD2jTtYeo5wBSzraDTJ40at7h74GnUmTViuxfr%2FSlobx65rKBjCsNW0OlFJNcpDQNTG77DiAgacY73vqWSC1HJRXUd19SGLY90d%2FZ1KsNjU9fRPHK89y2PXIhHioMWlzmaZQo8lkg6e7uIyCsjElMx0UTiWSK5WiLprAeeBFOmSGKJpDuRXIVEEqDAh9NwGkSRG4Bl%2BMbB3mc5e0sh10oh4zPqrAaaLIN0Z5DWULwuAjElVkkgdjdzvQxy01Fh9Q78ReaH4WQKrJZBOjPIycXVz3C5qYSZx%2BUMn1%2FXYRe1cgcPu4ChnXZpHlIpeKDvaRev%2BTfX%2BlsEjj7tIorldwjkzcvvafBu%2Fwc%3D%3C%2Fdiagram%3E%3C%2Fmxfile%3E" resource="https://test.draw.io/?dev=1&amp;splash=0#Halderg%2Fsandbox%2Fmaster%2Fimages%252Fschema.svg" style="background-color: rgb(255, 255, 255);"><defs><clipPath id="mx-clip-41-32-114-24-0"><rect x="41" y="32" width="114" height="24"/></clipPath><clipPath id="mx-clip-5-32-26-24-0"><rect x="5" y="32" width="26" height="24"/></clipPath><clipPath id="mx-clip-41-58-114-24-0"><rect x="41" y="58" width="114" height="24"/></clipPath><clipPath id="mx-clip-403-110-114-24-0"><rect x="403" y="110" width="114" height="24"/></clipPath><clipPath id="mx-clip-367-110-26-24-0"><rect x="367" y="110" width="26" height="24"/></clipPath><clipPath id="mx-clip-403-136-114-24-0"><rect x="403" y="136" width="114" height="24"/></clipPath><clipPath id="mx-clip-367-136-26-24-0"><rect x="367" y="136" width="26" height="24"/></clipPath><clipPath id="mx-clip-403-162-114-24-0"><rect x="403" y="162" width="114" height="24"/></clipPath><clipPath id="mx-clip-53-194-114-24-0"><rect x="53" y="194" width="114" height="24"/></clipPath><clipPath id="mx-clip-17-194-26-24-0"><rect x="17" y="194" width="26" height="24"/></clipPath><clipPath id="mx-clip-53-220-114-24-0"><rect x="53" y="220" width="114" height="24"/></clipPath><clipPath id="mx-clip-17-220-26-24-0"><rect x="17" y="220" width="26" height="24"/></clipPath><clipPath id="mx-clip-53-246-114-24-0"><rect x="53" y="246" width="114" height="24"/></clipPath><clipPath id="mx-clip-53-272-114-24-0"><rect x="53" y="272" width="114" height="24"/></clipPath><clipPath id="mx-clip-53-298-114-24-0"><rect x="53" y="298" width="114" height="24"/></clipPath><clipPath id="mx-clip-53-324-114-24-0"><rect x="53" y="324" width="114" height="24"/></clipPath><clipPath id="mx-clip-53-350-114-36-0"><rect x="53" y="350" width="114" height="36"/></clipPath></defs><g transform="translate(0.5,0.5)"><rect x="0" y="0" width="160" height="78" fill="#ffffff" stroke="#000000" pointer-events="none"/><path d="M 0 26 L 0 0 L 160 0 L 160 26 Z" fill="#e0e0e0" stroke="#000000" stroke-miterlimit="10" pointer-events="none"/><g fill="#000000" font-family="Helvetica" text-anchor="middle" font-size="12px"><text x="79.5" y="17.5">Customer</text></g><path d="M 160 52 L 0 52" fill="none" stroke="#000000" stroke-miterlimit="10" pointer-events="none"/><g fill="#000000" font-family="Helvetica" text-decoration="underline" clip-path="url(#mx-clip-41-32-114-24-0)" font-size="12px"><text x="42.5" y="44.5">CustomerId</text></g><path d="M 36 26 L 36 52" fill="none" stroke="#000000" stroke-miterlimit="10" pointer-events="none"/><g fill="#000000" font-family="Helvetica" clip-path="url(#mx-clip-5-32-26-24-0)" font-size="12px"><text x="6.5" y="44.5">PK</text></g><g fill="#000000" font-family="Helvetica" clip-path="url(#mx-clip-41-58-114-24-0)" font-size="12px"><text x="42.5" y="70.5">Name</text></g><path d="M 36 52 L 36 78" fill="none" stroke="#000000" stroke-miterlimit="10" pointer-events="none"/><rect x="362" y="78" width="160" height="104" fill="#ffffff" stroke="#000000" pointer-events="none"/><path d="M 362 104 L 362 78 L 522 78 L 522 104 Z" fill="#e0e0e0" stroke="#000000" stroke-miterlimit="10" pointer-events="none"/><g fill="#000000" font-family="Helvetica" text-anchor="middle" font-size="12px"><text x="441.5" y="95.5">Order</text></g><path d="M 522 130 L 362 130" fill="none" stroke="#000000" stroke-miterlimit="10" pointer-events="none"/><g fill="#000000" font-family="Helvetica" text-decoration="underline" clip-path="url(#mx-clip-403-110-114-24-0)" font-size="12px"><text x="404.5" y="122.5">OrderId</text></g><path d="M 398 104 L 398 130" fill="none" stroke="#000000" stroke-miterlimit="10" pointer-events="none"/><g fill="#000000" font-family="Helvetica" clip-path="url(#mx-clip-367-110-26-24-0)" font-size="12px"><text x="368.5" y="122.5">PK</text></g><g fill="#000000" font-family="Helvetica" clip-path="url(#mx-clip-403-136-114-24-0)" font-size="12px"><text x="404.5" y="148.5">CustomerId</text></g><path d="M 398 130 L 398 156" fill="none" stroke="#000000" stroke-miterlimit="10" pointer-events="none"/><g fill="#000000" font-family="Helvetica" clip-path="url(#mx-clip-367-136-26-24-0)" font-size="12px"><text x="368.5" y="148.5">FK1</text></g><g fill="#000000" font-family="Helvetica" clip-path="url(#mx-clip-403-162-114-24-0)" font-size="12px"><text x="404.5" y="174.5">Date</text></g><path d="M 398 156 L 398 182" fill="none" stroke="#000000" stroke-miterlimit="10" pointer-events="none"/><path d="M 160 39 L 180 39 Q 190 39 198.76 43.81 L 323.24 112.19 Q 332 117 342 117 L 362 117" fill="none" stroke="#000000" stroke-miterlimit="10" pointer-events="none"/><path d="M 164 35 L 164 43 M 168 35 L 168 43" fill="none" stroke="#000000" stroke-miterlimit="10" pointer-events="none"/><ellipse cx="350" cy="117" rx="3" ry="3" fill="#ffffff" stroke="#000000" pointer-events="none"/><path d="M 362 113 L 354 117 L 362 121" fill="none" stroke="#000000" stroke-miterlimit="10" pointer-events="none"/><rect x="12" y="162" width="160" height="220" fill="#ffffff" stroke="#000000" pointer-events="none"/><path d="M 12 188 L 12 162 L 172 162 L 172 188 Z" fill="#e0e0e0" stroke="#000000" stroke-miterlimit="10" pointer-events="none"/><g fill="#000000" font-family="Helvetica" text-anchor="middle" font-size="12px"><text x="91.5" y="179.5">Shipment</text></g><path d="M 172 214 L 12 214" fill="none" stroke="#000000" stroke-miterlimit="10" pointer-events="none"/><g fill="#000000" font-family="Helvetica" text-decoration="underline" clip-path="url(#mx-clip-53-194-114-24-0)" font-size="12px"><text x="54.5" y="206.5">ShipmentId</text></g><path d="M 48 188 L 48 214" fill="none" stroke="#000000" stroke-miterlimit="10" pointer-events="none"/><g fill="#000000" font-family="Helvetica" clip-path="url(#mx-clip-17-194-26-24-0)" font-size="12px"><text x="18.5" y="206.5">PK</text></g><g fill="#000000" font-family="Helvetica" clip-path="url(#mx-clip-53-220-114-24-0)" font-size="12px"><text x="54.5" y="232.5">OrderId</text></g><path d="M 48 214 L 48 240" fill="none" stroke="#000000" stroke-miterlimit="10" pointer-events="none"/><g fill="#000000" font-family="Helvetica" clip-path="url(#mx-clip-17-220-26-24-0)" font-size="12px"><text x="18.5" y="232.5">FK1</text></g><g fill="#000000" font-family="Helvetica" clip-path="url(#mx-clip-53-246-114-24-0)" font-size="12px"><text x="54.5" y="258.5">Field 1</text></g><path d="M 48 240 L 48 266" fill="none" stroke="#000000" stroke-miterlimit="10" pointer-events="none"/><g fill="#000000" font-family="Helvetica" clip-path="url(#mx-clip-53-272-114-24-0)" font-size="12px"><text x="54.5" y="284.5">Field 2</text></g><path d="M 48 266 L 48 292" fill="none" stroke="#000000" stroke-miterlimit="10" pointer-events="none"/><g fill="#000000" font-family="Helvetica" clip-path="url(#mx-clip-53-298-114-24-0)" font-size="12px"><text x="54.5" y="310.5">Field 3</text></g><path d="M 48 292 L 48 318" fill="none" stroke="#000000" stroke-miterlimit="10" pointer-events="none"/><g fill="#000000" font-family="Helvetica" clip-path="url(#mx-clip-53-324-114-24-0)" font-size="12px"><text x="54.5" y="336.5">Test</text></g><path d="M 48 318 L 48 344" fill="none" stroke="#000000" stroke-miterlimit="10" pointer-events="none"/><g fill="#000000" font-family="Helvetica" clip-path="url(#mx-clip-53-350-114-36-0)" font-size="12px"><text x="54.5" y="362.5">Test2</text></g><path d="M 48 344 L 48 382" fill="none" stroke="#000000" stroke-miterlimit="10" pointer-events="none"/><path d="M 362 130 L 342 130 Q 332 130 323.99 135.98 L 210.01 221.02 Q 202 227 192 227 L 172 227" fill="none" stroke="#000000" stroke-miterlimit="10" pointer-events="none"/><path d="M 358 134 L 358 126 M 354 134 L 354 126" fill="none" stroke="#000000" stroke-miterlimit="10" pointer-events="none"/><ellipse cx="184" cy="227" rx="3" ry="3" fill="#ffffff" stroke="#000000" pointer-events="none"/><path d="M 172 231 L 180 227 L 172 223" fill="none" stroke="#000000" stroke-miterlimit="10" pointer-events="none"/></g></svg>